<?xml version="1.0" encoding="UTF-8" standalone="no"?>
<!-- Created with Inkscape (http://www.inkscape.org/) -->
<svg
   xmlns:dc="http://purl.org/dc/elements/1.1/"
   xmlns:cc="http://web.resource.org/cc/"
   xmlns:rdf="http://www.w3.org/1999/02/22-rdf-syntax-ns#"
   xmlns:svg="http://www.w3.org/2000/svg"
   xmlns="http://www.w3.org/2000/svg"
   xmlns:xlink="http://www.w3.org/1999/xlink"
   xmlns:sodipodi="http://inkscape.sourceforge.net/DTD/sodipodi-0.dtd"
   xmlns:inkscape="http://www.inkscape.org/namespaces/inkscape"
   width="744.09448819"
   height="1052.3622047"
   id="svg1353"
   sodipodi:version="0.32"
   inkscape:version="0.42"
   sodipodi:docbase="/home/users/mimooh"
   sodipodi:docname="sowa_sklep.svg">
  <defs
     id="defs1355">
    <linearGradient
       id="linearGradient10453">
      <stop
         style="stop-color:#000000;stop-opacity:0.16494845;"
         offset="0.0000000"
         id="stop10455" />
      <stop
         style="stop-color:#000000;stop-opacity:0;"
         offset="1"
         id="stop10457" />
    </linearGradient>
    <radialGradient
       inkscape:collect="always"
       xlink:href="#linearGradient10453"
       id="radialGradient10459"
       cx="121.72338"
       cy="816.49158"
       fx="121.72338"
       fy="816.49158"
       r="141.92644"
       gradientTransform="matrix(1.000000,8.151846e-18,7.631744e-18,0.209964,2.475531e-14,645.0574)"
       gradientUnits="userSpaceOnUse" />
  </defs>
  <sodipodi:namedview
     id="base"
     pagecolor="#ffffff"
     bordercolor="#666666"
     borderopacity="1.0"
     inkscape:pageopacity="0.0"
     inkscape:pageshadow="2"
     inkscape:zoom="0.59960345"
     inkscape:cx="372.04724"
     inkscape:cy="526.18109"
     inkscape:document-units="px"
     inkscape:current-layer="layer1"
     inkscape:window-width="1014"
     inkscape:window-height="742"
     inkscape:window-x="0"
     inkscape:window-y="0" />
  <metadata
     id="metadata1358">
    <rdf:RDF>
      <cc:Work
         rdf:about="">
        <dc:format>image/svg+xml</dc:format>
        <dc:type
           rdf:resource="http://purl.org/dc/dcmitype/StillImage" />
      </cc:Work>
    </rdf:RDF>
  </metadata>
  <g
     inkscape:label="Layer 1"
     inkscape:groupmode="layer"
     id="layer1">
    <path
       sodipodi:type="arc"
       style="opacity:1.0000000;color:#000000;fill:url(#radialGradient10459);fill-opacity:1.0000000;fill-rule:nonzero;stroke:none;stroke-width:3.1390629;stroke-linecap:butt;stroke-linejoin:miter;marker:none;marker-start:none;marker-mid:none;marker-end:none;stroke-miterlimit:4.0000000;stroke-dasharray:none;stroke-dashoffset:0.0000000;stroke-opacity:1.0000000;visibility:visible;display:inline;overflow:visible"
       id="path9725"
       sodipodi:cx="121.72338"
       sodipodi:cy="816.49158"
       sodipodi:rx="141.92644"
       sodipodi:ry="29.799500"
       d="M 263.64982 816.49158 A 141.92644 29.799500 0 1 1  -20.203056,816.49158 A 141.92644 29.799500 0 1 1  263.64982 816.49158 z"
       transform="matrix(1.973802,-7.939826e-2,6.940187e-2,1.725297,45.04493,-544.7129)" />
    <g
       id="g7527"
       transform="matrix(1.306087,0.000000,0.000000,1.306087,-6.623935,-247.5745)">
      <path
         style="opacity:1.0000000;color:#000000;fill:#eda500;fill-opacity:1.0000000;fill-rule:nonzero;stroke:none;stroke-width:3.1390629;stroke-linecap:butt;stroke-linejoin:miter;marker:none;marker-start:none;marker-mid:none;marker-end:none;stroke-miterlimit:4.0000000;stroke-dasharray:none;stroke-dashoffset:0.0000000;stroke-opacity:1.0000000;visibility:visible;display:inline;overflow:visible"
         d="M 224.28571,798.79075 C 224.28571,798.79075 216.04095,839.76502 308.46990,836.22948 C 308.46990,836.22948 326.72963,835.20008 359.48261,829.15841 C 401.32696,816.55075 412.90791,744.80091 412.90791,744.80091 L 224.28571,798.79075 z "
         id="path7529"
         sodipodi:nodetypes="csccc" />
      <path
         style="fill:#000000;fill-opacity:1.0000000;fill-rule:nonzero;stroke:none;stroke-width:1.0000000pt;stroke-linecap:butt;stroke-linejoin:miter;stroke-opacity:1.0000000"
         id="path7531"
         d="M 231.68688,800.59325 C 228.54429,800.50114 225.89944,802.13296 223.17343,803.46703 C 241.08469,792.32298 223.49995,802.29293 227.16394,814.06788 C 240.67649,829.28194 264.61326,831.26555 283.72427,832.87021 C 310.22087,833.84371 337.60682,832.65174 362.91781,824.05546 C 377.28939,815.64258 377.66231,824.96158 387.57972,799.37227 C 388.19397,797.81647 388.20764,796.14483 388.52160,794.53111 L 400.21973,788.77165 C 399.92396,790.46215 399.92511,792.20416 399.33242,793.84315 C 391.94493,814.27966 372.65308,824.76186 352.88977,831.84393 C 327.45914,840.08181 300.11409,841.16216 273.60377,840.09244 C 253.93024,838.38895 229.60534,836.27117 215.76316,820.55877 C 210.99764,806.71617 221.72742,801.19399 233.47147,795.16163 C 236.42104,793.90492 239.23546,792.47057 242.54750,792.70255 L 231.68688,800.59325 z " />
    </g>
    <g
       id="g7523"
       transform="matrix(1.306087,0.000000,0.000000,1.306087,89.75939,-236.0594)">
      <path
         sodipodi:nodetypes="csccc"
         id="path7521"
         d="M 224.28571,798.79075 C 224.28571,798.79075 216.04095,839.76502 308.46990,836.22948 C 308.46990,836.22948 326.72963,835.20008 359.48261,829.15841 C 401.32696,816.55075 412.90791,744.80091 412.90791,744.80091 L 224.28571,798.79075 z "
         style="opacity:1.0000000;color:#000000;fill:#eda500;fill-opacity:1.0000000;fill-rule:nonzero;stroke:none;stroke-width:3.1390629;stroke-linecap:butt;stroke-linejoin:miter;marker:none;marker-start:none;marker-mid:none;marker-end:none;stroke-miterlimit:4.0000000;stroke-dasharray:none;stroke-dashoffset:0.0000000;stroke-opacity:1.0000000;visibility:visible;display:inline;overflow:visible" />
      <path
         style="fill:#000000;fill-opacity:1.0000000;fill-rule:nonzero;stroke:none;stroke-width:1.0000000pt;stroke-linecap:butt;stroke-linejoin:miter;stroke-opacity:1.0000000"
         d="M 399.34375,787.00000 C 395.35220,790.34481 386.75916,790.17084 386.18041,796.11941 C 383.33035,804.42584 380.79101,816.30968 370.75000,818.37500 C 343.41761,831.00894 312.36650,831.59128 282.75486,830.77653 C 264.04925,828.98944 242.91274,827.48135 229.06250,813.12500 C 227.90661,807.81495 230.22305,802.29122 235.30151,800.45465 C 238.97158,797.32958 247.50919,792.47720 248.18881,790.39485 C 236.34390,789.64351 225.33307,796.10435 216.81250,803.75000 C 210.59874,810.32030 211.29931,822.21086 219.49145,826.80848 C 237.40787,840.25303 260.99311,841.45861 282.56140,842.23436 C 316.73720,842.94361 353.22260,839.48136 382.03125,819.37500 C 392.96933,811.23577 401.93525,799.22386 402.84375,785.25000 C 401.67708,785.83333 400.51042,786.41667 399.34375,787.00000 z "
         id="path7517" />
    </g>
    <path
       style="opacity:1.0000000;color:#000000;fill:#b47241;fill-opacity:1.0000000;fill-rule:nonzero;stroke:none;stroke-width:3.1390629;stroke-linecap:butt;stroke-linejoin:miter;marker:none;marker-start:none;marker-mid:none;marker-end:none;stroke-miterlimit:4.0000000;stroke-dasharray:none;stroke-dashoffset:0.0000000;stroke-opacity:1.0000000;visibility:visible;display:inline;overflow:visible"
       d="M 310.09041,447.07929 C 310.09041,447.07929 93.717452,639.70399 252.03913,767.68067 C 410.36079,895.65735 608.26288,796.04662 608.26288,796.04662 C 625.41440,780.87414 741.51696,647.62007 534.37943,361.32171 C 533.06009,346.80890 634.69226,354.04686 674.99483,360.60742 C 663.86883,320.73942 576.20678,311.41315 576.20678,311.41315 C 576.20678,311.41315 627.02239,292.86488 680.84763,319.02732 C 696.31976,261.76979 559.89259,276.16920 559.89259,276.16920 C 559.89259,276.16920 580.89293,239.88281 593.03578,224.88281 C 556.77325,211.70907 352.91457,259.39564 352.91457,289.74063 C 352.91457,320.08562 311.40975,448.39864 310.09041,447.07929 z "
       id="path7507"
       sodipodi:nodetypes="cscccccccsc" />
    <path
       style="fill:#000000;fill-opacity:1.0000000;fill-rule:nonzero;stroke:none;stroke-width:1.0000000pt;stroke-linecap:butt;stroke-linejoin:miter;stroke-opacity:1.0000000"
       d="M 557.78125,213.18750 C 519.50961,216.80704 481.80400,226.65412 446.37574,241.53456 C 441.45777,244.50889 433.53925,245.69932 432.21875,252.15625 C 442.10370,256.74915 451.47425,248.24963 461.04907,246.39276 C 499.01225,233.97491 539.50713,228.90881 579.28125,233.50000 C 564.78522,243.68977 553.01359,260.10724 551.87500,277.84375 C 557.56158,286.47526 569.80625,284.91919 578.83843,284.88748 C 604.51852,284.39688 631.82379,278.64246 656.16005,289.46736 C 664.21967,292.76120 670.69722,299.46085 674.09375,307.43750 C 640.04695,285.74563 593.17000,287.35138 559.96875,310.03125 C 587.00967,322.42302 619.32553,319.07895 644.40625,336.25000 C 652.18315,341.86297 658.99155,348.83891 664.28125,356.84375 C 632.92024,348.16151 600.83731,339.71701 568.06505,340.03845 C 552.93374,340.42640 533.72113,343.90591 527.55436,359.80096 C 525.64273,365.72373 522.24720,373.71020 530.11832,365.84534 C 547.27522,353.23627 570.06622,354.99275 590.18292,356.28756 C 625.70673,359.30321 660.25472,368.47423 694.65625,377.46875 C 683.93447,350.70018 664.65763,326.28874 637.73935,314.59678 C 631.74158,311.67563 624.30562,309.56332 618.53125,308.18750 C 634.20647,306.61981 651.25373,308.07014 663.66214,318.84095 C 670.19288,323.16992 675.72938,328.77367 681.78125,333.71875 C 691.88738,325.09231 698.10582,310.15170 691.39915,297.62751 C 681.23226,278.39052 659.63034,268.71477 639.47108,263.56718 C 617.55262,258.37501 593.73816,258.73860 572.75000,267.40625 C 585.36616,249.56181 600.04727,232.88515 618.78125,221.25000 C 599.69327,212.28419 578.44735,211.66017 557.78125,213.18750 z "
       id="path1318" />
    <path
       style="fill:#000000;fill-opacity:1.0000000;fill-rule:nonzero;stroke:none;stroke-width:1.0000000pt;stroke-linecap:butt;stroke-linejoin:miter;stroke-opacity:1.0000000"
       d="M 535.75000,356.09375 C 531.79741,359.48130 526.35616,360.83391 523.46875,365.50000 C 561.11990,418.81812 594.69621,475.43080 617.70191,536.70334 C 632.73127,577.10248 644.30613,619.25747 647.83183,662.35814 C 650.24062,701.44805 645.14567,743.49097 621.25000,775.81250 C 612.87366,787.53570 601.08689,795.88289 589.57930,804.18085 C 584.43642,807.63914 589.43691,812.23233 593.91836,808.75448 C 607.73427,802.46964 618.67859,791.14759 628.60485,779.95408 C 657.51823,744.80100 664.71996,696.86204 660.84819,652.67550 C 654.59508,591.81522 635.09332,532.85897 608.68964,477.89584 C 588.49854,434.89150 563.74380,394.23887 537.46875,354.71875 C 536.89583,355.17708 536.32292,355.63542 535.75000,356.09375 z "
       id="path1320" />
    <path
       style="opacity:1.0000000;color:#000000;fill:#eda500;fill-opacity:1.0000000;fill-rule:nonzero;stroke:none;stroke-width:3.1390629;stroke-linecap:butt;stroke-linejoin:miter;marker:none;marker-start:none;marker-mid:none;marker-end:none;stroke-miterlimit:4.0000000;stroke-dasharray:none;stroke-dashoffset:0.0000000;stroke-opacity:1.0000000;visibility:visible;display:inline;overflow:visible"
       d="M 303.26535,463.27627 C 303.26535,463.27627 224.90013,498.72720 258.48522,544.44024 C 292.07032,590.15331 357.37468,495.92845 357.37468,495.92845 C 372.30139,467.00795 360.17344,470.73961 303.26535,463.27627 z "
       id="path6767"
       sodipodi:nodetypes="cscc" />
    <g
       id="g6757"
       transform="matrix(1.306087,0.000000,0.000000,1.306087,427.5122,-53.98961)">
      <path
         id="path3843"
         d="M -39.630232,204.69595 C -61.581655,207.80817 -79.836902,222.58663 -92.755232,239.91470 C -93.038955,230.02269 -102.32000,224.38922 -111.23378,223.37257 C -125.98464,220.75829 -142.72715,222.07669 -154.55539,232.05730 C -190.81796,253.22491 -205.18358,300.56123 -194.83392,339.98462 C -187.66962,370.33585 -163.81694,398.29642 -132.22398,403.85220 C -118.65355,406.18176 -105.44150,401.21970 -93.880232,394.57095 C -87.098164,396.50264 -79.988568,401.03084 -72.252103,401.10043 C -63.365963,401.85846 -48.951247,403.48694 -42.479952,397.84406 C 19.466085,363.98805 10.989738,263.66466 1.9966683,226.17049 C -2.6818317,208.84209 -23.442112,201.75027 -39.630232,204.69595 z "
         style="fill:#ffffff;fill-opacity:1.0000000;fill-rule:evenodd;stroke:none;stroke-width:1.0000000pt;stroke-linecap:butt;stroke-linejoin:miter;stroke-opacity:1.0000000"
         sodipodi:nodetypes="ccccccccccc" />
      <g
         transform="translate(-272.4600,-128.2478)"
         id="g3817">
        <path
           style="fill:#000000;fill-opacity:1.0000000;fill-rule:nonzero;stroke:none;stroke-width:1.0000000pt;stroke-linecap:butt;stroke-linejoin:miter;stroke-opacity:1.0000000"
           d="M 261.11064,351.65017 C 246.32874,331.38603 213.02999,332.49999 197.44253,351.31793 C 178.96413,372.39518 169.35911,399.94207 163.96281,427.07162 C 157.78144,457.56448 160.09159,492.89089 181.88370,516.90355 C 194.13921,527.39994 217.04521,522.93947 231.25757,525.35663 C 227.42369,532.81573 203.56118,532.14705 193.74927,529.41658 C 168.55274,523.98934 151.50768,499.58563 149.71182,474.67004 C 147.42029,448.59291 154.48425,422.78506 161.71153,397.96734 C 172.80519,366.29026 197.44747,335.20907 232.39268,329.93745 C 250.54926,326.50870 272.94822,335.16604 277.01372,354.90287 C 317.53873,489.77321 237.70173,525.85634 224.16566,528.86436 C 312.02280,463.86436 267.82950,363.16823 261.11064,351.65017 z "
           id="path1330"
           sodipodi:nodetypes="cccccccccccc" />
        <path
           style="fill:#000000;fill-opacity:1.0000000;fill-rule:nonzero;stroke:none;stroke-width:1.0000000pt;stroke-linecap:butt;stroke-linejoin:miter;stroke-opacity:1.0000000"
           d="M 172.59079,366.81238 C 154.51411,341.56842 114.96477,353.03682 101.56825,377.34752 C 66.426044,425.20367 85.623398,503.58143 140.72521,527.21552 C 152.51203,528.11704 185.30344,522.75803 157.00226,533.91913 C 123.86421,543.33079 95.232335,515.26914 82.773496,487.28624 C 60.677843,442.50017 73.890701,380.74720 119.37320,355.99512 C 133.35761,341.34296 187.81940,338.57522 172.59079,366.81238 L 172.59079,366.81238 z "
           id="path1334" />
      </g>
    </g>
    <path
       style="opacity:1.0000000;color:#000000;fill:#ffffff;fill-opacity:0.16161616;fill-rule:nonzero;stroke:none;stroke-width:3.1390629;stroke-linecap:butt;stroke-linejoin:miter;marker:none;marker-start:none;marker-mid:none;marker-end:none;stroke-miterlimit:4.0000000;stroke-dasharray:none;stroke-dashoffset:0.0000000;stroke-opacity:1.0000000;visibility:visible;display:inline;overflow:visible"
       d="M 267.97490,543.62415 C 337.37321,525.44193 331.13781,465.77503 359.46825,471.36187 C 377.58251,489.43424 317.29575,564.03788 267.97490,543.62415 z "
       id="path8271"
       sodipodi:nodetypes="ccc" />
    <path
       style="fill:#000000;fill-opacity:1.0000000;fill-rule:nonzero;stroke:none;stroke-width:1.0000000pt;stroke-linecap:butt;stroke-linejoin:miter;stroke-opacity:1.0000000"
       d="M 299.87105,463.76468 C 276.91417,477.11841 255.25697,500.78617 257.68499,529.13102 C 268.57449,558.60343 308.15893,543.88337 325.78584,529.11562 C 335.70579,519.67788 347.68485,495.84464 364.82544,481.76807 C 364.31764,505.49096 331.21361,532.76318 314.08054,544.82617 C 293.95104,555.84919 262.06696,572.37012 246.12531,546.23647 C 229.53022,518.83415 257.51186,490.94659 276.42547,473.45836 C 277.24740,470.10491 308.65823,456.56924 299.87105,463.76468 z "
       id="path1336"
       sodipodi:nodetypes="cccccccc" />
    <path
       style="fill:#000000;fill-opacity:1.0000000;fill-rule:nonzero;stroke:none;stroke-width:1.0000000pt;stroke-linecap:butt;stroke-linejoin:miter;stroke-opacity:1.0000000"
       d="M 244.06250,524.87500 C 227.30428,541.85885 210.22181,559.34797 198.71300,580.45593 C 194.28213,594.34962 187.40834,607.63293 184.88933,622.20869 C 173.59113,671.63818 186.81198,727.57508 223.70460,763.32396 C 242.05227,781.64295 266.24309,792.24423 289.47209,802.89148 C 347.12208,828.58955 412.39393,842.05584 475.06250,829.37500 C 485.35528,826.53374 472.15167,824.72776 467.85435,825.02124 C 406.42004,821.93448 343.08455,814.80627 287.81250,785.81250 C 268.71404,775.32896 250.62570,762.67348 234.64821,747.78871 C 209.51423,723.16663 199.98841,686.52093 201.34375,652.09375 C 203.27930,607.19962 219.88933,563.24761 247.03125,527.53125 C 248.27445,522.50315 251.18105,521.27843 244.06250,524.87500 z "
       id="path1344" />
    <g
       id="g3795"
       transform="matrix(0.977029,0.000000,0.000000,0.953994,147.2711,50.57224)">
      <g
         transform="matrix(0.969003,0.247050,-0.247050,0.969003,885.7269,-87.97398)"
         id="g3783">
        <g
           id="g3785"
           transform="translate(-90.00000,70.00000)">
          <path
             style="opacity:1.0000000;color:#000000;fill:#3ebf00;fill-opacity:1.0000000;fill-rule:evenodd;stroke:#000000;stroke-width:0.99999952pt;stroke-linecap:butt;stroke-linejoin:miter;marker:none;marker-start:none;marker-mid:none;marker-end:none;stroke-miterlimit:4.0000000;stroke-dasharray:none;stroke-dashoffset:0.0000000;stroke-opacity:1.0000000;visibility:visible;display:inline;overflow:visible"
             d="M -516.65802,717.55786 C -511.70353,716.40634 -518.63142,714.26020 -516.65802,717.55786 z M -514.59552,716.21411 C -514.22892,716.20754 -514.72348,715.99659 -514.59552,716.21411 z M -514.40802,717.18286 C -542.57799,723.82552 -571.67851,731.10739 -596.32164,746.95268 C -601.91950,751.03593 -610.72489,752.95592 -611.15193,761.39776 C -612.17572,776.39580 -600.57450,791.40910 -586.29553,795.40303 C -580.38578,794.89665 -575.32710,796.54996 -570.45537,800.07497 C -534.94747,820.74243 -504.22525,854.68347 -497.50603,896.32396 C -495.67881,905.97480 -496.60003,915.93582 -496.85335,925.53100 C -493.01168,940.37117 -476.29899,944.63675 -462.89184,945.07658 C -450.61454,945.68021 -438.04169,945.61552 -425.90918,945.32015 C -416.92866,940.14498 -404.67799,937.87732 -399.25177,928.30786 C -398.11278,917.19385 -401.11539,905.73320 -402.82147,894.65403 C -412.04398,847.57506 -432.69965,802.32453 -464.04088,765.83700 C -469.53751,760.71861 -473.31246,754.55616 -476.36288,747.79230 C -484.19424,735.51965 -493.58385,722.33695 -507.53302,716.83911 C -509.88108,717.01422 -512.10062,716.17958 -514.40802,717.18286 z "
             id="path3787" />
          <path
             sodipodi:nodetypes="cccccccccccccc"
             id="path3789"
             d="M -600.77965,747.88724 C -630.66971,757.29669 -601.81402,802.85359 -579.42974,797.80925 C -533.02871,821.51731 -491.61437,869.87929 -499.33733,925.10830 C -491.74974,954.64540 -451.38551,946.07890 -426.52734,948.09330 C -402.55884,936.95260 -398.57155,935.17740 -396.62996,926.14350 C -402.34474,853.82421 -435.54414,792.11005 -470.13862,756.35579 C -477.73345,737.01692 -515.30388,698.96221 -497.26262,738.46609 C -460.25616,773.27611 -430.27370,820.24872 -414.49923,869.08650 C -410.78650,891.98358 -394.00453,929.82400 -425.47656,939.98450 C -450.91237,946.21030 -477.61231,941.55060 -485.60782,924.66940 C -479.74589,875.02305 -524.03343,818.75246 -562.37467,794.66853 C -585.55993,790.58169 -615.78780,768.24560 -584.03995,750.25015 C -559.18311,734.32063 -517.42806,717.79271 -503.79100,713.24702 C -503.79100,713.24702 -572.37248,725.49790 -600.77965,747.88724 z "
             style="fill:#000000;fill-opacity:1.0000000;fill-rule:nonzero;stroke:none;stroke-width:1.0000000pt;stroke-linecap:butt;stroke-linejoin:miter;stroke-opacity:1.0000000" />
        </g>
      </g>
      <g
         id="g3771"
         transform="matrix(0.998613,-5.264540e-2,5.264540e-2,0.998613,606.0073,-272.5990)">
        <g
           transform="translate(-90.00000,70.00000)"
           id="g3773">
          <path
             id="path3775"
             d="M -516.65802,717.55786 C -511.70353,716.40634 -518.63142,714.26020 -516.65802,717.55786 z M -514.59552,716.21411 C -514.22892,716.20754 -514.72348,715.99659 -514.59552,716.21411 z M -514.40802,717.18286 C -542.57799,723.82552 -571.67851,731.10739 -596.32164,746.95268 C -601.91950,751.03593 -610.72489,752.95592 -611.15193,761.39776 C -612.17572,776.39580 -600.57450,791.40910 -586.29553,795.40303 C -580.38578,794.89665 -575.32710,796.54996 -570.45537,800.07497 C -534.94747,820.74243 -504.22525,854.68347 -497.50603,896.32396 C -495.67881,905.97480 -496.60003,915.93582 -496.85335,925.53100 C -493.01168,940.37117 -476.29899,944.63675 -462.89184,945.07658 C -450.61454,945.68021 -438.04169,945.61552 -425.90918,945.32015 C -416.92866,940.14498 -404.67799,937.87732 -399.25177,928.30786 C -398.11278,917.19385 -401.11539,905.73320 -402.82147,894.65403 C -412.04398,847.57506 -432.69965,802.32453 -464.04088,765.83700 C -469.53751,760.71861 -473.31246,754.55616 -476.36288,747.79230 C -484.19424,735.51965 -493.58385,722.33695 -507.53302,716.83911 C -509.88108,717.01422 -512.10062,716.17958 -514.40802,717.18286 z "
             style="opacity:1.0000000;color:#000000;fill:#3ebf00;fill-opacity:1.0000000;fill-rule:evenodd;stroke:#000000;stroke-width:1.0000000pt;stroke-linecap:butt;stroke-linejoin:miter;marker:none;marker-start:none;marker-mid:none;marker-end:none;stroke-miterlimit:4.0000000;stroke-dasharray:none;stroke-dashoffset:0.0000000;stroke-opacity:1.0000000;visibility:visible;display:inline;overflow:visible" />
          <path
             style="fill:#000000;fill-opacity:1.0000000;fill-rule:nonzero;stroke:none;stroke-width:1.0000000pt;stroke-linecap:butt;stroke-linejoin:miter;stroke-opacity:1.0000000"
             d="M -600.77965,747.88724 C -630.66971,757.29669 -601.81402,802.85359 -579.42974,797.80925 C -533.02871,821.51731 -491.61437,869.87929 -499.33733,925.10830 C -491.74974,954.64540 -451.38551,946.07890 -426.52734,948.09330 C -402.55884,936.95260 -398.57155,935.17740 -396.62996,926.14350 C -402.34474,853.82421 -435.54414,792.11005 -470.13862,756.35579 C -477.73345,737.01692 -515.30388,698.96221 -497.26262,738.46609 C -460.25616,773.27611 -430.27370,820.24872 -414.49923,869.08650 C -410.78650,891.98358 -394.00453,929.82400 -425.47656,939.98450 C -450.91237,946.21030 -477.61231,941.55060 -485.60782,924.66940 C -479.74589,875.02305 -524.03343,818.75246 -562.37467,794.66853 C -585.55993,790.58169 -615.78780,768.24560 -584.03995,750.25015 C -559.18311,734.32063 -517.42806,717.79271 -503.79100,713.24702 C -503.79100,713.24702 -572.37248,725.49790 -600.77965,747.88724 z "
             id="path3777"
             sodipodi:nodetypes="cccccccccccccc" />
        </g>
      </g>
      <g
         transform="matrix(0.919027,-0.394194,0.394194,0.919027,228.5260,-358.7751)"
         id="g3764">
        <g
           id="g3004"
           transform="translate(-90.00000,70.00000)">
          <path
             style="fill:#3ebf00;fill-opacity:1.0000000;fill-rule:evenodd;stroke:#000000;stroke-width:1.0000000pt;stroke-linecap:butt;stroke-linejoin:miter;stroke-opacity:1.0000000"
             d="M -516.65802,717.55786 C -511.70353,716.40634 -518.63142,714.26020 -516.65802,717.55786 z M -514.59552,716.21411 C -514.22892,716.20754 -514.72348,715.99659 -514.59552,716.21411 z M -514.40802,717.18286 C -542.57799,723.82552 -571.67851,731.10739 -596.32164,746.95268 C -601.91950,751.03593 -610.72489,752.95592 -611.15193,761.39776 C -612.17572,776.39580 -600.57450,791.40910 -586.29553,795.40303 C -580.38578,794.89665 -575.32710,796.54996 -570.45537,800.07497 C -534.94747,820.74243 -504.22525,854.68347 -497.50603,896.32396 C -495.67881,905.97480 -496.60003,915.93582 -496.85335,925.53100 C -493.01168,940.37117 -476.29899,944.63675 -462.89184,945.07658 C -450.61454,945.68021 -438.04169,945.61552 -425.90918,945.32015 C -416.92866,940.14498 -404.67799,937.87732 -399.25177,928.30786 C -398.11278,917.19385 -401.11539,905.73320 -402.82147,894.65403 C -412.04398,847.57506 -432.69965,802.32453 -464.04088,765.83700 C -469.53751,760.71861 -473.31246,754.55616 -476.36288,747.79230 C -484.19424,735.51965 -493.58385,722.33695 -507.53302,716.83911 C -509.88108,717.01422 -512.10062,716.17958 -514.40802,717.18286 z "
             id="path3006" />
          <path
             style="fill:#000000;fill-opacity:1.0000000;fill-rule:nonzero;stroke:none;stroke-width:1.0000000pt;stroke-linecap:butt;stroke-linejoin:miter;stroke-opacity:1.0000000"
             d="M -515.34375,713.53125 C -544.04123,720.38243 -573.55689,727.74013 -598.60598,743.91921 C -604.68492,747.80263 -613.08690,750.43846 -614.66960,758.58469 C -618.22442,773.43566 -607.87227,788.53783 -595.67869,796.19524 C -590.82805,799.74674 -584.52243,800.15943 -578.96572,800.35361 C -542.13706,819.77531 -509.86395,853.21049 -501.87500,895.12500 C -500.06851,905.24989 -500.37538,915.62214 -501.21875,925.75000 C -498.19508,939.60666 -484.38942,947.41964 -471.11861,948.60894 C -456.09119,950.60327 -440.71290,949.45733 -425.68750,949.90625 C -416.03076,944.52882 -403.98056,941.71093 -396.93750,932.68750 C -392.18144,924.31782 -396.60934,914.46179 -397.09847,905.51458 C -404.80718,854.59140 -426.15327,805.55696 -459.08127,765.86869 C -465.04931,759.86503 -469.94433,753.18273 -473.69811,745.63492 C -480.68412,735.80667 -488.06403,724.84380 -499.13009,719.49152 C -506.06073,718.23049 -504.13700,727.58388 -502.24981,731.51836 C -499.44904,743.13193 -487.83049,748.79420 -481.18091,757.99027 C -451.73415,791.08464 -428.67114,830.28855 -415.72574,872.71015 C -412.82047,889.53804 -405.48584,907.01443 -410.57212,924.11058 C -415.70560,938.70950 -433.36271,940.33442 -446.62398,940.52995 C -460.25515,940.58001 -476.46775,937.07734 -483.56250,924.18750 C -480.44667,888.38480 -498.90508,854.63313 -521.45520,828.18429 C -533.47263,814.49594 -546.91346,801.34702 -562.84239,792.46547 C -575.44884,789.31612 -590.12605,783.54658 -595.31250,770.59375 C -597.68544,758.21523 -583.64428,752.68603 -575.21360,747.31783 C -552.03508,734.09078 -527.02010,724.22678 -502.31896,714.49278 C -494.60217,709.58266 -509.03193,711.73422 -512.02960,712.86285 C -513.13432,713.08565 -514.23903,713.30845 -515.34375,713.53125 z "
             id="path3008" />
        </g>
        <path
           style="font-size:49.490868px;font-style:normal;font-variant:normal;font-weight:bold;font-stretch:normal;text-align:start;line-height:125.00000%;writing-mode:lr-tb;text-anchor:start;fill:#000000;fill-opacity:1.0000000;stroke:none;stroke-width:1.0000000pt;stroke-linecap:butt;stroke-linejoin:miter;stroke-opacity:1.0000000;font-family:Bitstream Vera Sans"
           d="M -631.42297,872.24054 C -636.44979,867.12764 -621.46085,866.74727 -627.16725,860.45910 C -631.79956,856.29452 -622.32780,850.17041 -621.63645,852.31143 C -623.37715,859.34015 -617.72404,861.70166 -613.34410,856.13830 C -610.87826,851.88348 -614.83753,845.45896 -608.96385,842.22754 C -604.30271,837.51544 -597.06435,836.12242 -591.92862,840.34369 C -589.51263,840.04490 -583.94880,834.92446 -585.13069,840.27016 C -591.37687,841.75399 -588.94014,846.41714 -587.70865,850.48011 C -589.67731,853.91748 -596.44123,857.36010 -594.26979,850.62548 C -597.14010,844.78280 -606.34469,854.06677 -601.90566,858.77098 C -603.04561,865.93694 -611.67762,871.11228 -618.68688,870.53527 C -621.80467,868.25991 -624.55220,865.82891 -627.99955,869.82007 C -629.11850,870.65816 -630.27554,871.44257 -631.42297,872.24054 z M -604.33887,849.72156 C -602.36005,848.41879 -594.51340,843.93777 -601.15401,844.19239 C -603.16882,844.86997 -605.79593,847.47876 -604.33886,849.72153 M -610.85809,857.97473 C -614.02652,859.10667 -621.18874,865.57430 -613.51134,863.73899 C -611.69671,862.76377 -609.02719,860.02999 -610.85814,857.97472 M -599.99353,886.84772 C -597.83509,892.06191 -594.83600,892.62782 -590.97373,888.42071 C -584.60136,884.00021 -578.22899,879.57972 -571.85663,875.15922 C -575.15612,872.78463 -579.73812,870.65551 -573.69838,868.31982 C -569.24418,864.04810 -561.90529,872.87456 -562.10659,876.67330 C -572.07985,883.85547 -582.32787,890.72247 -592.40060,897.79330 C -589.16589,901.27121 -587.83467,904.27392 -593.23692,906.27076 C -598.31815,909.01881 -600.25170,898.40925 -603.96535,895.52460 C -609.57006,890.59650 -603.54043,890.01751 -599.99353,886.84772 z M -564.84149,911.42365 C -560.21595,908.92171 -553.86707,904.37068 -554.71425,898.61848 C -560.91449,896.42406 -566.42143,902.54435 -571.52452,905.45734 C -574.79359,908.06677 -584.33314,914.06324 -578.92844,917.97260 C -573.67584,917.61761 -568.91218,914.56503 -564.84148,911.42361 M -560.76514,917.46222 C -567.16590,921.82580 -574.92085,926.55809 -582.96728,924.72687 C -590.61737,922.13089 -589.21050,912.10062 -584.46132,907.40544 C -576.60342,899.47215 -566.96942,891.68462 -555.45348,890.59428 C -547.99542,889.77218 -543.89394,898.87405 -547.79833,904.69669 C -550.80355,910.03489 -555.86281,913.95201 -560.76516,917.46225 M -549.48303,933.56354 C -544.85748,931.06165 -538.50861,926.51061 -539.35581,920.75842 C -545.55605,918.56399 -551.06294,924.68435 -556.16605,927.59731 C -559.43514,930.20672 -568.97469,936.20319 -563.56998,940.11257 C -558.31737,939.75758 -553.55372,936.70499 -549.48302,933.56356 M -545.40668,939.60217 C -551.80745,943.96575 -559.56240,948.69804 -567.60883,946.86682 C -575.25893,944.27084 -573.85204,934.24056 -569.10286,929.54539 C -561.24495,921.61212 -551.61097,913.82458 -540.09503,912.73423 C -532.63695,911.91211 -528.53546,921.01399 -532.43988,926.83664 C -535.44511,932.17483 -540.50437,936.09196 -545.40671,939.60221 M -554.63074,982.94031 C -559.65746,977.82738 -544.66862,977.44704 -550.37497,971.15885 C -555.00728,966.99429 -545.53552,960.87015 -544.84416,963.01120 C -546.58484,970.03992 -540.93179,972.40143 -536.55183,966.83808 C -534.08598,962.58326 -538.04525,956.15872 -532.17156,952.92730 C -527.51043,948.21521 -520.27207,946.82219 -515.13635,951.04346 C -512.72037,950.74465 -507.15650,945.62420 -508.33841,950.96992 C -514.58459,952.45376 -512.14788,957.11690 -510.91638,961.17987 C -512.88505,964.61726 -519.64894,968.05987 -517.47752,961.32524 C -520.34785,955.48257 -529.55238,964.76653 -525.11337,969.47074 C -526.25336,976.63668 -534.88533,981.81204 -541.89460,981.23503 C -545.01239,978.95967 -547.75993,976.52867 -551.20728,980.51983 C -552.32624,981.35793 -553.48327,982.14233 -554.63074,982.94031 z M -527.54657,960.42126 C -525.56776,959.11853 -517.72115,954.63753 -524.36171,954.89216 C -526.37653,955.56970 -529.00368,958.17863 -527.54657,960.42126 z M -534.06586,968.67450 C -537.23427,969.80645 -544.39646,976.27406 -536.71908,974.43878 C -534.90445,973.46356 -532.23491,970.72978 -534.06586,968.67449 L -534.06586,968.67450 z "
           id="text3756" />
      </g>
      <text
         transform="matrix(0.919027,-0.394194,0.394194,0.919027,0.000000,0.000000)"
         id="text3760"
         y="745.31281"
         x="25.81493"
         style="font-size:12.000000px;font-style:normal;font-weight:normal;fill:#000000;fill-opacity:1.0000000;stroke:none;stroke-width:1.0000000pt;stroke-linecap:butt;stroke-linejoin:miter;stroke-opacity:1.0000000;font-family:Bitstream Vera Sans"
         xml:space="preserve"><tspan
           y="745.31281"
           x="25.814930"
           id="tspan3762"
           sodipodi:role="line"> </tspan></text>
    </g>
    <path
       style="opacity:1.0000000;color:#000000;fill:#000000;fill-opacity:1.0000000;fill-rule:nonzero;stroke:none;stroke-width:3.1390629;stroke-linecap:butt;stroke-linejoin:miter;marker:none;marker-start:none;marker-mid:none;marker-end:none;stroke-miterlimit:4.0000000;stroke-dasharray:none;stroke-dashoffset:0.0000000;stroke-opacity:1.0000000;visibility:visible;display:inline;overflow:visible"
       d="M 327.53875,400.76410 C 321.87407,400.76410 317.25331,409.11723 317.25331,419.41665 C 317.25331,429.71608 321.87407,438.06922 327.53875,438.06921 C 333.20344,438.06921 337.78338,429.71608 337.78338,419.41665 C 337.78338,409.11723 333.20344,400.76407 327.53875,400.76410 z M 330.55908,413.41682 C 333.47220,413.41682 335.82425,415.19105 335.82425,417.37589 C 335.82426,419.56072 333.47220,421.33497 330.55908,421.33497 C 327.64595,421.33497 325.25309,419.56072 325.25309,417.37589 C 325.25308,415.19105 327.64595,413.41682 330.55908,413.41682 z "
       id="path1346" />
    <path
       id="path2078"
       d="M 258.27302,402.08343 C 252.60833,402.08343 247.98758,410.43657 247.98758,420.73599 C 247.98758,431.03541 252.60833,439.38856 258.27302,439.38855 C 263.93770,439.38855 268.51764,431.03541 268.51764,420.73599 C 268.51764,410.43657 263.93770,402.08342 258.27302,402.08343 z M 261.29335,414.73615 C 264.20646,414.73615 266.55851,416.51040 266.55851,418.69524 C 266.55852,420.88006 264.20646,422.65431 261.29335,422.65431 C 258.38022,422.65431 255.98737,420.88006 255.98737,418.69524 C 255.98735,416.51040 258.38022,414.73615 261.29335,414.73615 z "
       style="opacity:1.0000000;color:#000000;fill:#000000;fill-opacity:1.0000000;fill-rule:nonzero;stroke:none;stroke-width:3.1390629;stroke-linecap:butt;stroke-linejoin:miter;marker:none;marker-start:none;marker-mid:none;marker-end:none;stroke-miterlimit:4.0000000;stroke-dasharray:none;stroke-dashoffset:0.0000000;stroke-opacity:1.0000000;visibility:visible;display:inline;overflow:visible" />
    <path
       style="opacity:1.0000000;color:#000000;fill:#b47241;fill-opacity:1.0000000;fill-rule:nonzero;stroke:none;stroke-width:3.1390629;stroke-linecap:butt;stroke-linejoin:miter;marker:none;marker-start:none;marker-mid:none;marker-end:none;stroke-miterlimit:4.0000000;stroke-dasharray:none;stroke-dashoffset:0.0000000;stroke-opacity:1.0000000;visibility:visible;display:inline;overflow:visible"
       d="M 467.45916,573.36076 L 335.91754,654.52475 C 335.91754,654.52475 254.75354,661.05518 251.95478,668.51853 C 249.15604,675.98190 259.41814,718.89618 279.94237,719.82910 C 300.46660,720.76202 341.51504,738.48750 342.44797,753.41421 C 343.38088,768.34091 476.78836,768.34091 512.23930,713.29867 C 514.10513,703.96948 467.45916,571.49493 467.45916,573.36076 z "
       id="path7505" />
    <path
       style="fill:#000000;fill-opacity:1.0000000;fill-rule:nonzero;stroke:none;stroke-width:1.0000000pt;stroke-linecap:butt;stroke-linejoin:miter;stroke-opacity:1.0000000"
       d="M 417.22510,619.45365 C 379.27548,644.73890 336.64224,666.81470 290.17510,668.70075 C 279.29948,671.71897 266.91253,665.48850 256.91589,671.97014 C 249.52786,681.95019 259.06013,694.58245 267.12402,700.95885 C 282.43810,712.03203 300.97819,717.29357 317.73495,725.72326 C 329.90690,731.04773 344.62326,737.73577 352.48555,749.76742 C 360.19588,763.34495 377.85040,759.44966 391.67754,758.12159 C 436.10944,754.62074 475.19581,730.93378 513.53120,710.28729 C 526.30196,706.04826 504.08134,723.83105 500.74875,727.11644 C 467.56173,754.67768 424.09323,765.81985 381.79555,768.42953 C 367.76431,769.87246 349.48320,767.08473 336.72823,760.30103 C 329.01816,748.44477 311.18581,732.59515 295.58465,733.76817 C 271.70551,727.18216 263.36549,714.55911 245.74017,698.14469 C 234.72033,686.17119 240.18289,665.82720 254.90393,659.76379 C 271.09654,650.86945 289.49553,659.28594 306.57209,655.10989 C 336.06886,649.24543 363.35043,635.45659 389.38283,620.81511 C 417.13332,604.76539 443.49818,586.40567 471.65200,571.04019 C 457.20009,590.82709 437.82597,606.45732 417.22510,619.45365 z "
       id="path2203"
       sodipodi:nodetypes="cccccccccccccccccc" />
    <path
       style="opacity:1.0000000;color:#000000;fill:#ffffff;fill-opacity:0.13636364;fill-rule:nonzero;stroke:none;stroke-width:3.1390629;stroke-linecap:butt;stroke-linejoin:miter;marker:none;marker-start:none;marker-mid:none;marker-end:none;stroke-miterlimit:4.0000000;stroke-dasharray:none;stroke-dashoffset:0.0000000;stroke-opacity:1.0000000;visibility:visible;display:inline;overflow:visible"
       d="M 541.15980,415.69738 C 608.33000,520.18436 664.75790,684.92466 613.24843,782.21349 C 664.14509,725.06767 649.65413,537.66754 541.15980,415.69738 z "
       id="path7535"
       sodipodi:nodetypes="ccc" />
    <path
       style="opacity:1.0000000;color:#000000;fill:#000000;fill-opacity:1.0000000;fill-rule:nonzero;stroke:none;stroke-width:3.1390629;stroke-linecap:butt;stroke-linejoin:miter;marker:none;marker-start:none;marker-mid:none;marker-end:none;stroke-miterlimit:4.0000000;stroke-dasharray:none;stroke-dashoffset:0.0000000;stroke-opacity:1.0000000;visibility:visible;display:inline;overflow:visible"
       d="M 210.56244,230.14347 C 238.26797,205.35433 272.45269,195.24990 290.76264,208.27072 C 291.89393,180.74518 247.88332,175.15205 210.56244,230.14347 z "
       id="path7537"
       sodipodi:nodetypes="ccc" />
    <path
       sodipodi:nodetypes="ccc"
       id="path7539"
       d="M 349.87238,468.27645 C 387.03803,467.37525 408.14345,478.38959 447.09195,406.45188 C 431.77777,461.65696 384.87128,498.19835 349.87238,468.27645 z "
       style="opacity:1.0000000;color:#000000;fill:#000000;fill-opacity:1.0000000;fill-rule:nonzero;stroke:none;stroke-width:3.1390629;stroke-linecap:butt;stroke-linejoin:miter;marker:none;marker-start:none;marker-mid:none;marker-end:none;stroke-miterlimit:4.0000000;stroke-dasharray:none;stroke-dashoffset:0.0000000;stroke-opacity:1.0000000;visibility:visible;display:inline;overflow:visible" />
    <path
       style="opacity:1.0000000;color:#000000;fill:#000000;fill-opacity:1.0000000;fill-rule:nonzero;stroke:none;stroke-width:3.1390629;stroke-linecap:butt;stroke-linejoin:miter;marker:none;marker-start:none;marker-mid:none;marker-end:none;stroke-miterlimit:4.0000000;stroke-dasharray:none;stroke-dashoffset:0.0000000;stroke-opacity:1.0000000;visibility:visible;display:inline;overflow:visible"
       d="M 366.96794,484.23633 C 398.01515,490.40204 414.37945,505.04683 454.71743,442.87182 C 435.89871,493.34462 392.82372,519.79163 366.96794,484.23633 z "
       id="path7541"
       sodipodi:nodetypes="ccc" />
    <path
       sodipodi:nodetypes="ccc"
       id="path7543"
       d="M 269.37427,673.29994 C 351.83347,678.90717 431.89311,623.90486 471.41860,577.71467 C 462.94465,620.50941 365.34111,689.51554 269.37427,673.29994 z "
       style="opacity:1.0000000;color:#000000;fill:#ffffff;fill-opacity:0.11111111;fill-rule:nonzero;stroke:none;stroke-width:3.1390629;stroke-linecap:butt;stroke-linejoin:miter;marker:none;marker-start:none;marker-mid:none;marker-end:none;stroke-miterlimit:4.0000000;stroke-dasharray:none;stroke-dashoffset:0.0000000;stroke-opacity:1.0000000;visibility:visible;display:inline;overflow:visible" />
    <path
       sodipodi:nodetypes="ccc"
       id="path10468"
       d="M 455.26223,207.09980 C 430.80071,179.10460 398.11056,164.89019 378.34397,175.57091 C 380.59178,148.11400 424.95607,147.95218 455.26223,207.09980 z "
       style="opacity:1.0000000;color:#000000;fill:#000000;fill-opacity:1.0000000;fill-rule:nonzero;stroke:none;stroke-width:3.1390629;stroke-linecap:butt;stroke-linejoin:miter;marker:none;marker-start:none;marker-mid:none;marker-end:none;stroke-miterlimit:4.0000000;stroke-dasharray:none;stroke-dashoffset:0.0000000;stroke-opacity:1.0000000;visibility:visible;display:inline;overflow:visible" />
  </g>
</svg>
