<?xml version="1.0" encoding="UTF-8"?>
<svg xmlns="http://www.w3.org/2000/svg" xmlns:xlink="http://www.w3.org/1999/xlink" width="577.307678pt" height="685.305603pt" viewBox="0 0 577.307678 685.305603" version="1.1">
<defs>
<clipPath id="clip1">
  <path d="M 210 218 L 577.308594 218 L 577.308594 685.304688 L 210 685.304688 Z M 210 218 "/>
</clipPath>
</defs>
<g id="surface1">
<path style=" stroke:none;fill-rule:nonzero;fill:rgb(0%,0%,0%);fill-opacity:1;" d="M 115.523438 218.75 L 356.835938 218.75 L 356.835938 276.859375 L 115.523438 276.859375 Z M 236.523438 56.046875 C 186.398438 56.046875 146.636719 74.734375 117.242188 112.109375 C 87.617188 149.476562 72.804688 200.402344 72.804688 264.890625 C 72.804688 329.152344 87.558594 379.96875 117.070312 417.34375 C 146.578125 454.710938 186.398438 473.390625 236.523438 473.390625 C 286.65625 473.390625 326.421875 454.703125 355.820312 417.328125 C 384.984375 379.964844 399.570312 329.152344 399.570312 264.890625 C 399.570312 200.402344 384.984375 149.476562 355.820312 112.109375 C 326.421875 74.734375 286.65625 56.046875 236.523438 56.046875 Z M 236.523438 0 C 308.074219 0 365.265625 23.984375 408.101562 71.953125 C 450.945312 119.914062 472.367188 184.226562 472.367188 264.890625 C 472.367188 345.328125 450.945312 409.476562 408.101562 457.328125 C 365.265625 505.402344 308.074219 529.4375 236.523438 529.4375 C 164.75 529.4375 107.445312 505.515625 64.601562 457.671875 C 21.539062 409.820312 0.0078125 345.558594 0.0078125 264.890625 C 0.0078125 184.226562 21.539062 119.855469 64.601562 71.78125 C 107.445312 23.929688 164.75 0 236.523438 0 Z M 236.523438 0 "/>
<g clip-path="url(#clip1)" clip-rule="nonzero">
<path style=" stroke:none;fill-rule:nonzero;fill:rgb(30.195618%,30.195618%,30.195618%);fill-opacity:1;" d="M 356.84375 441.601562 L 356.84375 577.976562 C 356.84375 601.21875 358.097656 618.363281 360.609375 629.414062 C 363.117188 640.46875 367.90625 649.753906 374.96875 657.273438 C 381.113281 663.890625 388.34375 668.734375 396.65625 671.804688 C 404.976562 674.878906 415.632812 676.757812 428.625 677.445312 L 428.625 685.304688 L 210.21875 685.304688 L 210.21875 677.445312 C 221.15625 677.445312 231.519531 675.679688 241.3125 672.148438 C 251.113281 668.617188 258.75 663.890625 264.21875 657.960938 C 270.601562 650.898438 275.160156 641.21875 277.890625 628.914062 C 280.628906 616.601562 282 599.625 282 577.976562 L 282 326.070312 C 282 311.488281 281.203125 296.335938 279.609375 280.617188 C 277.328125 260.566406 267.523438 245.640625 250.203125 235.835938 C 240.640625 230.597656 227.3125 227.523438 210.21875 226.617188 L 210.21875 218.757812 L 567.390625 218.757812 L 577.3125 329.835938 L 569.453125 331.539062 C 563.753906 314.226562 558.507812 301.242188 553.71875 292.585938 C 543.007812 272.753906 527.972656 257.367188 508.609375 246.429688 C 497.441406 240.054688 484.566406 235.617188 469.984375 233.117188 C 455.398438 230.609375 435.347656 229.351562 409.828125 229.351562 L 356.84375 229.351562 L 356.84375 431.007812 L 370.515625 431.007812 C 410.847656 431.007812 440.128906 422.007812 458.359375 404.007812 C 466.335938 396.257812 472.375 387.085938 476.46875 376.492188 C 480.570312 365.898438 483.3125 352.054688 484.6875 334.960938 L 492.546875 335.304688 L 490.484375 542.429688 L 482.28125 542.429688 C 479.78125 519.191406 475.507812 501.25 469.46875 488.601562 C 463.425781 475.957031 454.253906 465.757812 441.953125 458.007812 C 432.835938 452.3125 421.613281 448.15625 408.28125 445.539062 C 394.957031 442.914062 377.8125 441.601562 356.84375 441.601562 Z M 356.84375 441.601562 "/>
</g>
<path style="fill:none;stroke-width:0.749999;stroke-linecap:butt;stroke-linejoin:miter;stroke:rgb(0%,0%,0%);stroke-opacity:1;stroke-miterlimit:4;" d="M 396.917969 217.039062 C 397.417969 221.414062 397.917969 225.789062 398.417969 230.164062 "/>
<path style="fill:none;stroke-width:0.754512;stroke-linecap:butt;stroke-linejoin:miter;stroke:rgb(0%,0%,0%);stroke-opacity:1;stroke-miterlimit:4;" d="M 469.410156 218.539062 C 469.878906 223.5 470.347656 228.460938 470.816406 233.421875 "/>
<path style=" stroke:none;fill-rule:nonzero;fill:rgb(0%,0%,0%);fill-opacity:1;" d="M 399.210938 217.214844 L 469.214844 217.214844 L 469.214844 235.246094 L 399.210938 235.246094 Z M 399.210938 217.214844 "/>
<path style="fill:none;stroke-width:0.749999;stroke-linecap:butt;stroke-linejoin:miter;stroke:rgb(0%,0%,0%);stroke-opacity:1;stroke-miterlimit:4;" d="M 397.753906 217.875 L 399.34375 229.542969 "/>
<path style="fill:none;stroke-width:0.749999;stroke-linecap:butt;stroke-linejoin:miter;stroke:rgb(0%,0%,0%);stroke-opacity:1;stroke-miterlimit:4;" d="M 398.285156 223.84375 L 398.949219 218.40625 L 399.476562 223.445312 L 397.886719 218.9375 "/>
<path style="fill:none;stroke-width:0.749999;stroke-linecap:butt;stroke-linejoin:miter;stroke:rgb(0%,0%,0%);stroke-opacity:1;stroke-miterlimit:4;" d="M 398.152344 215.488281 C 397.679688 216.867188 397.777344 218.425781 398.417969 219.734375 C 399.066406 221.058594 400.207031 222.0625 401.296875 223.058594 C 402.386719 224.054688 403.484375 225.125 404.003906 226.507812 C 404.265625 227.199219 404.367188 227.957031 404.226562 228.683594 C 404.085938 229.40625 403.6875 230.09375 403.085938 230.519531 C 402.785156 230.730469 402.433594 230.875 402.070312 230.933594 C 401.707031 230.988281 401.328125 230.957031 400.980469 230.824219 C 400.636719 230.695312 400.324219 230.46875 400.105469 230.171875 C 399.882812 229.878906 399.75 229.515625 399.742188 229.144531 C 399.734375 228.746094 399.863281 228.359375 400 227.980469 C 400.132812 227.605469 400.277344 227.222656 400.300781 226.824219 C 400.308594 226.625 400.289062 226.421875 400.222656 226.234375 C 400.15625 226.046875 400.042969 225.871094 399.882812 225.746094 C 399.726562 225.621094 399.527344 225.550781 399.328125 225.5625 C 399.128906 225.570312 398.933594 225.667969 398.816406 225.832031 C 398.730469 225.949219 398.6875 226.09375 398.683594 226.238281 C 398.683594 226.386719 398.71875 226.53125 398.773438 226.664062 C 398.882812 226.933594 399.074219 227.15625 399.246094 227.390625 C 399.417969 227.625 399.578125 227.882812 399.605469 228.171875 C 399.617188 228.316406 399.59375 228.46875 399.527344 228.597656 C 399.460938 228.726562 399.347656 228.832031 399.210938 228.882812 C 399.109375 228.917969 398.992188 228.917969 398.886719 228.890625 C 398.78125 228.859375 398.683594 228.800781 398.605469 228.722656 C 398.453125 228.566406 398.378906 228.34375 398.375 228.121094 C 398.371094 227.902344 398.433594 227.683594 398.519531 227.484375 C 398.605469 227.28125 398.714844 227.089844 398.816406 226.890625 C 399.445312 225.632812 399.589844 224.136719 399.210938 222.78125 "/>
<path style="fill:none;stroke-width:0.749999;stroke-linecap:butt;stroke-linejoin:miter;stroke:rgb(0%,0%,0%);stroke-opacity:1;stroke-miterlimit:4;" d="M 398.78125 229.277344 L 398.730469 228.203125 "/>
<path style="fill:none;stroke-width:0.749999;stroke-linecap:butt;stroke-linejoin:miter;stroke:rgb(0%,0%,0%);stroke-opacity:1;stroke-miterlimit:4;" d="M 398.996094 229.910156 L 398.796875 228.648438 "/>
<path style="fill:none;stroke-width:0.749999;stroke-linecap:butt;stroke-linejoin:miter;stroke:rgb(0%,0%,0%);stroke-opacity:1;stroke-miterlimit:4;" d="M 398.46875 227.140625 C 398.289062 227.3125 398.203125 227.574219 398.246094 227.820312 C 398.285156 228.0625 398.457031 228.28125 398.683594 228.382812 C 398.769531 228.421875 398.867188 228.445312 398.964844 228.449219 "/>
<path style="fill:none;stroke-width:0.749999;stroke-linecap:butt;stroke-linejoin:miter;stroke:rgb(0%,0%,0%);stroke-opacity:1;stroke-miterlimit:4;" d="M 399.824219 223.445312 C 399.238281 223.851562 398.777344 224.4375 398.515625 225.101562 C 398.394531 225.421875 398.3125 225.757812 398.285156 226.097656 "/>
<path style="fill:none;stroke-width:0.749999;stroke-linecap:butt;stroke-linejoin:miter;stroke:rgb(0%,0%,0%);stroke-opacity:1;stroke-miterlimit:4;" d="M 398.597656 227.390625 L 398.316406 226.5625 "/>
<path style="fill:none;stroke-width:0.749999;stroke-linecap:butt;stroke-linejoin:miter;stroke:rgb(0%,0%,0%);stroke-opacity:1;stroke-miterlimit:4;" d="M 398.300781 225.203125 C 398.257812 224.242188 398.175781 223.285156 398.050781 222.335938 C 398.015625 222.054688 397.976562 221.773438 397.886719 221.507812 C 397.796875 221.234375 397.660156 220.980469 397.570312 220.710938 C 397.433594 220.285156 397.429688 219.816406 397.554688 219.382812 "/>
<path style="fill:none;stroke-width:0.749999;stroke-linecap:butt;stroke-linejoin:miter;stroke:rgb(0%,0%,0%);stroke-opacity:1;stroke-miterlimit:4;" d="M 398.53125 218.308594 L 398.53125 219.433594 "/>
<path style="fill:none;stroke-width:0.749999;stroke-linecap:butt;stroke-linejoin:miter;stroke:rgb(0%,0%,0%);stroke-opacity:1;stroke-miterlimit:4;" d="M 399.511719 221.921875 L 398.847656 223.726562 "/>
<path style="fill:none;stroke-width:0.749999;stroke-linecap:butt;stroke-linejoin:miter;stroke:rgb(0%,0%,0%);stroke-opacity:1;stroke-miterlimit:4;" d="M 398.980469 223.0625 L 398.617188 222.351562 "/>
<path style="fill:none;stroke-width:0.749999;stroke-linecap:butt;stroke-linejoin:miter;stroke:rgb(0%,0%,0%);stroke-opacity:1;stroke-miterlimit:4;" d="M 397.488281 218.308594 C 397.566406 218.578125 397.625 218.855469 397.671875 219.136719 C 397.699219 219.3125 397.722656 219.488281 397.738281 219.667969 "/>
<path style="fill:none;stroke-width:0.749999;stroke-linecap:butt;stroke-linejoin:miter;stroke:rgb(0%,0%,0%);stroke-opacity:1;stroke-miterlimit:4;" d="M 469.972656 233.890625 C 469.976562 233.566406 469.960938 233.246094 469.925781 232.929688 C 469.820312 232 469.535156 231.09375 469.480469 230.164062 C 469.457031 229.765625 469.476562 229.367188 469.480469 228.96875 C 469.484375 228.28125 469.4375 227.59375 469.433594 226.90625 C 469.425781 225.875 469.515625 224.84375 469.480469 223.8125 C 469.453125 222.96875 469.34375 222.125 469.152344 221.304688 "/>
<path style="fill:none;stroke-width:0.749999;stroke-linecap:butt;stroke-linejoin:miter;stroke:rgb(0%,0%,0%);stroke-opacity:1;stroke-miterlimit:4;" d="M 469.152344 234.59375 L 469.316406 231.335938 "/>
<path style="fill:none;stroke-width:0.749999;stroke-linecap:butt;stroke-linejoin:miter;stroke:rgb(0%,0%,0%);stroke-opacity:1;stroke-miterlimit:4;" d="M 470.511719 233.515625 C 470.332031 231.878906 470.121094 230.246094 469.878906 228.617188 C 469.816406 228.210938 469.757812 227.804688 469.691406 227.398438 "/>
<path style="fill:none;stroke-width:0.749999;stroke-linecap:butt;stroke-linejoin:miter;stroke:rgb(0%,0%,0%);stroke-opacity:1;stroke-miterlimit:4;" d="M 468.847656 232.484375 L 469.457031 230.75 "/>
<path style="fill:none;stroke-width:0.749999;stroke-linecap:butt;stroke-linejoin:miter;stroke:rgb(0%,0%,0%);stroke-opacity:1;stroke-miterlimit:4;" d="M 469.480469 226.15625 L 469.996094 227.632812 "/>
<path style="fill:none;stroke-width:0.749999;stroke-linecap:butt;stroke-linejoin:miter;stroke:rgb(0%,0%,0%);stroke-opacity:1;stroke-miterlimit:4;" d="M 469.175781 222.734375 L 469.246094 220.789062 "/>
</g>
</svg>
