<?xml version="1.0" encoding="UTF-8" standalone="no"?>
<svg
   xmlns:dc="http://purl.org/dc/elements/1.1/"
   xmlns:cc="http://creativecommons.org/ns#"
   xmlns:rdf="http://www.w3.org/1999/02/22-rdf-syntax-ns#"
   xmlns:svg="http://www.w3.org/2000/svg"
   xmlns="http://www.w3.org/2000/svg"
   xmlns:sodipodi="http://sodipodi.sourceforge.net/DTD/sodipodi-0.dtd"
   xmlns:inkscape="http://www.inkscape.org/namespaces/inkscape"
   width="1000"
   height="1000"
   viewBox="0 0 264.58333 264.58334"
   version="1.1"
   id="svg8"
   inkscape:version="1.0.1 (3bc2e813f5, 2020-09-07)"
   sodipodi:docname="mathsandphysics.svg">
  <defs
     id="defs2">
    <filter
       id="f">
      <feGaussianBlur
         stdDeviation="10"
         in="SourceAlpha"
         result="blur"
         id="feGaussianBlur833" />
      <feOffset
         in="blur"
         dx="10"
         dy="10"
         result="off"
         id="feOffset835" />
      <feBlend
         in="SourceGraphic"
         in2="off"
         result="blend"
         id="feBlend837" />
      <feMerge
         id="feMerge841">
        <feMergeNode
           in="blend"
           id="feMergeNode839" />
      </feMerge>
    </filter>
    <clipPath
       clipPathUnits="userSpaceOnUse"
       id="clipPath884">
      <path
         sodipodi:type="star"
         style="fill:#000000;fill-opacity:0.76;stroke-width:0.264583"
         id="path886"
         sodipodi:sides="3"
         sodipodi:cx="1.5119048"
         sodipodi:cy="263.07144"
         sodipodi:r1="373.11438"
         sodipodi:r2="186.55717"
         sodipodi:arg1="-0.77966757"
         sodipodi:arg2="0.26752998"
         inkscape:flatsided="true"
         inkscape:rounded="0"
         inkscape:randomized="0"
         d="M 266.85118,0.75596951 96.014127,624.01973 -358.3296,164.43862 Z"
         inkscape:transform-center-x="-44.373255"
         inkscape:transform-center-y="45.040097"
         transform="matrix(1.1827477,0.43234655,-1.1552224,1.6116331,629.49773,-97.953358)" />
    </clipPath>
    <clipPath
       clipPathUnits="userSpaceOnUse"
       id="clipPath905">
      <path
         sodipodi:type="star"
         style="fill:#000000;fill-opacity:0.76;stroke-width:0.264583"
         id="path907"
         sodipodi:sides="3"
         sodipodi:cx="99.029762"
         sodipodi:cy="157.2381"
         sodipodi:r1="208.62367"
         sodipodi:r2="104.31184"
         sodipodi:arg1="-0.57895762"
         sodipodi:arg2="0.46823993"
         inkscape:flatsided="true"
         inkscape:rounded="0"
         inkscape:randomized="0"
         d="M 273.65475,43.089295 110.57303,365.54218 -87.138496,63.082821 Z"
         inkscape:transform-center-x="43.693933"
         inkscape:transform-center-y="-44.401715"
         transform="matrix(-1.1537155,-0.07867106,0.76230602,-1.4383803,250.77483,454.45045)" />
    </clipPath>
  </defs>
  <sodipodi:namedview
     id="base"
     pagecolor="#ffffff"
     bordercolor="#666666"
     borderopacity="1.0"
     inkscape:pageopacity="0.0"
     inkscape:pageshadow="2"
     inkscape:zoom="0.35"
     inkscape:cx="210.94362"
     inkscape:cy="608.01184"
     inkscape:document-units="mm"
     inkscape:current-layer="layer1"
     inkscape:document-rotation="0"
     showgrid="false"
     units="px"
     inkscape:window-width="1280"
     inkscape:window-height="961"
     inkscape:window-x="-8"
     inkscape:window-y="-8"
     inkscape:window-maximized="1" />
  <metadata
     id="metadata5">
    <rdf:RDF>
      <cc:Work
         rdf:about="">
        <dc:format>image/svg+xml</dc:format>
        <dc:type
           rdf:resource="http://purl.org/dc/dcmitype/StillImage" />
        <dc:title></dc:title>
      </cc:Work>
    </rdf:RDF>
  </metadata>
  <g
     inkscape:label="Capa 1"
     inkscape:groupmode="layer"
     id="layer1">
    <g
       filter="url(#f)"
       id="g860"
       transform="matrix(0.29077833,0,0,0.29243233,-6.1491292,-5.3570343)"
       clip-path="url(#clipPath884)">
      <path
         d="m 155.25669,342.3332 9.34388,-2.53146 27.20881,256.51819 -97.55647,-111.95271 -21.888168,18.26384 -6.482503,-6.9181 32.841264,-29.36345 79.292727,90.06452 z"
         fill="#f5a568"
         id="path846" />
      <path
         d="M 140.45942,299.19047 34.545764,181.50124 l 3.226814,-2.90395 134.886592,-12.53521 25.82687,-132.097823 3.40609,-3.065293 103.09035,114.552016 -28.02864,29.60441 -3.22661,-3.58536 c 7.32593,-8.3236 11.11313,-15.9227 11.3615,-22.79741 0.248,-6.87469 -2.58567,-13.59861 -8.50095,-20.17178 L 216.89541,62.17182 194.10764,173.85171 67.180401,186.03763 133.16468,259.3581 c 3.76435,4.18276 8.68494,8.0281 14.76191,11.53596 4.20056,2.38418 8.75828,3.3927 13.67321,3.02552 4.91468,-0.3675 11.12169,-2.57372 18.62106,-6.61868 l 2.59921,4.14998 z"
         fill="#c871cf"
         id="path848" />
      <path
         d="m 595.6005,314.48353 c 5.23029,9e-5 9.58096,1.8307 13.05212,5.49184 3.47088,3.66141 5.20645,8.29738 5.20655,13.90799 -10e-5,5.6108 -1.73567,10.24685 -5.20655,13.90799 -3.47116,3.66132 -7.82183,5.49193 -13.05212,5.49184 -5.23047,9e-5 -9.58114,-1.83052 -13.05211,-5.49184 -3.47107,-3.66114 -5.20665,-8.29719 -5.20655,-13.90799 -1e-4,-5.61061 1.73548,-10.24658 5.20655,-13.90799 3.47097,-3.66114 7.82164,-5.49175 13.05211,-5.49184 z m 43.50689,77.74193 c 5.23029,9e-5 9.58097,1.8307 13.05212,5.49193 3.47088,3.66123 5.20646,8.29728 5.20655,13.9079 -9e-5,5.61079 -1.73567,10.24676 -5.20655,13.90799 -3.47115,3.66132 -7.82183,5.49193 -13.05212,5.49184 -5.23046,9e-5 -9.58114,-1.83052 -13.05202,-5.49184 -3.47115,-3.66123 -5.20673,-8.2972 -5.20664,-13.90799 -9e-5,-5.61062 1.73549,-10.24667 5.20664,-13.9079 3.47088,-3.66123 7.82156,-5.49184 13.05202,-5.49193 z m -87.01391,0 c 5.23029,9e-5 9.58105,1.8307 13.05211,5.49193 3.47098,3.66123 5.20655,8.29728 5.20655,13.9079 0,5.61079 -1.73557,10.24676 -5.20655,13.90799 -3.47106,3.66132 -7.82182,5.49193 -13.05211,5.49184 -5.23038,9e-5 -9.58105,-1.83052 -13.05202,-5.49184 -3.47116,-3.66123 -5.20664,-8.2972 -5.20664,-13.90799 0,-5.61062 1.73548,-10.24667 5.20664,-13.9079 3.47097,-3.66123 7.82164,-5.49184 13.05202,-5.49193 z"
         fill="#7a8deb"
         id="path850" />
      <path
         d="m 464.40823,183.40702 -6.86276,2.58161 c -2.85786,-17.01773 -3.06671,-31.2084 -0.62639,-42.57209 2.44022,-11.36309 7.6315,-20.12428 15.57376,-26.28297 7.94201,-6.1584 26.12931,-14.58537 54.56116,-25.281292 l 97.82812,-35.961177 14.52175,-6.022348 c 1.67898,3.472237 2.64149,5.53477 2.88743,6.188192 l 1.69123,5.239343 3.07406,8.915947 3.22723,8.578819 -23.1634,7.594385 -22.45752,8.727573 c 8.52511,43.984338 17.30571,77.986338 26.34164,102.006428 11.92474,31.7003 27.28277,44.01573 46.0743,36.94673 8.82355,-3.31909 15.95521,-12.62366 21.39549,-27.91334 l 6.00844,1.09714 c -0.97693,23.68329 -3.54111,38.68396 -7.69252,45.002 -4.15189,6.31826 -9.33247,10.6453 -15.54158,12.98105 -26.14445,9.83486 -47.51506,-7.30695 -64.11124,-51.4257 C 607.73254,188.80674 599.6528,150.7174 592.898,99.538807 c -3.88144,1.087233 -6.88407,2.030293 -9.00812,2.829093 -1.96102,0.73779 -4.1362,1.6493 -6.52571,2.73463 l -9.712,3.93311 -17.92393,5.90345 -13.4494,5.89848 c -1.30715,0.49202 -3.46208,1.20948 -6.46485,2.15223 23.11422,83.26228 35.78991,134.68474 38.02721,154.2677 2.23714,19.58303 -2.85351,31.71025 -15.2719,36.38183 -4.7388,1.78267 -9.60203,1.74665 -14.58948,-0.10758 -4.98776,-1.8541 -8.40357,-5.23247 -10.24768,-10.13445 -2.45879,-6.53617 -1.65024,-15.04743 2.42581,-25.53387 6.41853,-17.15009 9.07911,-32.88647 7.98144,-47.20901 -1.09766,-14.32254 -7.79466,-48.73544 -20.0903,-103.23882 l -13.51232,4.24352 c -10.45776,3.93415 -19.36125,9.14889 -26.71055,15.64368 -7.34917,6.49547 -11.82179,18.53001 -13.41799,36.10422 z"
         fill="#6fc584"
         id="path852" />
      <path
         d="m 475.61953,289.31459 15.61475,17.21642 -102.30739,92.78959 c 7.37766,7.30482 14.67088,13.10611 21.87956,17.40364 7.20875,4.29775 14.54138,6.86515 21.99774,7.70235 7.45651,0.83735 14.99412,-0.39305 22.6129,-3.69114 7.6187,-3.29802 16.54756,-9.59026 26.78659,-18.87673 l 52.39232,-47.5182 15.61468,17.21633 -52.88776,47.96754 c -8.09216,7.33934 -15.5602,13.20964 -22.40403,17.61083 -6.84399,4.40133 -13.67152,7.65908 -20.48272,9.77324 -6.81129,2.11422 -14.38392,2.84964 -22.71797,2.2063 -8.33406,-0.64333 -16.29355,-2.49165 -23.87864,-5.54496 -7.58516,-3.05324 -15.14625,-7.40751 -22.68333,-13.06288 -7.53702,-5.65513 -14.93782,-12.48749 -22.20223,-20.4972 -11.83272,-13.04629 -20.3448,-25.00348 -25.53632,-35.87149 -5.19131,-10.86778 -7.78752,-22.3587 -7.78852,-34.47298 -8.1e-4,-12.1139 2.89938,-23.43539 8.70056,-33.96449 5.80124,-10.52871 15.39025,-21.85929 28.76694,-33.99182 l 50.78212,-46.05779 15.61475,17.21641 -50.90602,46.17017 c -8.17469,7.41433 -14.38927,13.87847 -18.64366,19.39233 -4.25433,5.51425 -7.15689,10.81814 -8.70756,15.91144 -1.55063,5.09369 -2.02399,10.75276 -1.42017,16.9773 0.60396,6.22469 2.57412,12.75272 5.91055,19.58401 3.3365,6.83151 7.90628,13.86123 13.70928,21.08908 z"
         fill="#f17768"
         id="path854" />
      <path
         d="m 290.59926,287.38534 33.77232,-113.18701 c 4.42156,-13.51785 9.41682,-25.24029 14.98545,-35.1671 5.56846,-9.9262 10.95833,-17.06701 16.16984,-21.4224 3.78439,-3.19386 8.73083,-5.62554 14.83941,-7.29489 6.10826,-1.66863 11.64621,-1.84499 16.61391,-0.52894 6.53608,1.73248 11.67502,5.43773 15.41682,11.11574 3.74147,5.67873 4.91943,11.13236 3.53395,16.36103 -1.6284,6.14435 -4.66824,10.62019 -9.11961,13.42738 -4.45172,2.80804 -9.2265,3.53624 -14.32455,2.18497 -4.57551,-1.21225 -8.91955,-4.88172 -13.03189,-11.00834 -2.31398,-3.41098 -4.58211,-5.41113 -6.80419,-6.00026 -2.22247,-0.58869 -4.33647,-0.13461 -6.34202,1.36224 -2.00572,1.49747 -3.61483,4.53366 -4.82711,9.10875 -1.42055,5.36 -3.34377,14.99332 -5.76997,28.90014 -9.40135,55.0097 -18.46684,98.98564 -27.19655,131.92809 -2.42513,9.15084 -12.41652,43.15802 -29.97409,102.02184 -6.43896,21.6577 -12.23243,38.24008 -17.38026,49.74708 -6.84092,15.25546 -13.2796,25.82592 -19.3161,31.71111 -6.03661,5.88516 -11.95243,9.59886 -17.74744,11.14111 -5.79498,1.54213 -11.63383,1.53373 -17.51633,-0.025 -6.79767,-1.80154 -11.76457,-5.49611 -14.90065,-11.08386 -3.13606,-5.58787 -3.78599,-11.84601 -1.94996,-18.77436 1.55891,-5.8826 4.47273,-10.147 8.74148,-12.79319 4.26888,-2.64616 8.95243,-3.29365 14.05067,-1.94261 5.2289,1.38568 9.18469,4.67236 11.86708,9.86024 2.68242,5.18776 5.3309,8.12813 7.94547,8.821 2.22228,0.58891 4.29488,0.15878 6.21792,-1.29023 1.92294,-1.44917 3.45599,-4.33065 4.59919,-8.64455 1.45498,-5.49043 2.94519,-13.48979 4.4709,-23.99804 2.73144,-19.28248 6.88652,-41.82517 12.46541,-67.62829 7.05709,-32.96598 13.89404,-61.9331 20.5109,-86.90163 z"
         fill="#946edb"
         id="path856" />
      <path
         d="m 473.01674,533.41071 c 10.85559,-24.90433 22.74905,-42.14589 35.68053,-51.72469 12.93087,-9.57834 30.57151,-14.36766 52.92194,-14.36797 25.7025,3.1e-4 47.41399,9.25956 65.13479,27.77807 17.72019,18.51898 26.58036,42.54528 26.58082,72.07924 -4.6e-4,29.21502 -8.62124,53.24148 -25.86234,72.07938 -17.24187,18.83806 -36.47901,28.25701 -57.71142,28.25701 -14.20858,0 -27.09975,-4.39024 -38.67382,-13.17071 -11.57438,-8.78033 -25.58311,-27.21914 -42.02619,-55.31661 -10.21743,19.79592 -21.39257,34.0442 -33.52526,42.74467 -12.13316,8.70063 -26.82037,13.05102 -44.06178,13.05087 -22.9889,1.5e-4 -42.42558,-8.22155 -58.31004,-24.66494 -15.88461,-16.44324 -23.82692,-37.67595 -23.82692,-63.69799 0,-26.18143 7.34368,-47.3343 22.03089,-63.45861 14.6872,-16.1237 31.84892,-24.1857 51.48529,-24.186 14.68706,3e-4 27.1793,3.79176 37.47642,11.37468 10.29681,7.58322 21.19256,21.99119 32.68709,43.2236 z m 22.98875,48.61155 c 11.33452,23.78723 22.78905,40.27031 34.36343,49.44987 11.57391,9.17956 25.02402,13.76934 40.35001,13.76919 19.63591,1.5e-4 36.03931,-7.10398 49.21033,-21.31241 13.17025,-14.20827 19.75561,-33.20587 19.75592,-56.99294 -3.1e-4,-23.46753 -6.94475,-42.86421 -20.83348,-58.19035 -13.88935,-15.32553 -29.45472,-22.98845 -46.69598,-22.98875 -11.01575,3e-4 -20.63424,2.83405 -28.85563,8.50108 -8.22185,5.66765 -15.68522,14.64752 -22.39012,26.93991 -3.83161,7.18429 -12.13316,27.45899 -24.90448,60.8244 z M 466.0723,551.84952 c -7.82277,-17.56064 -16.76279,-30.49181 -26.82021,-38.79351 -10.05773,-8.30124 -22.43013,-12.45193 -37.11733,-12.45224 -16.92233,3.1e-4 -31.09075,5.94704 -42.50528,17.84034 -11.41453,11.89362 -17.12187,27.81808 -17.12172,47.77338 -1.5e-4,21.23287 5.62734,38.19505 16.88233,50.88667 11.25483,12.69179 23.98646,19.0376 38.19489,19.03745 15.16598,1.5e-4 28.57609,-6.78475 40.23031,-20.35455 7.50307,-8.94002 16.92202,-30.25243 28.25701,-63.93754 z"
         fill="#6dc5d3"
         id="path858" />
    </g>
    <g
       id="svgg"
       transform="matrix(0.61106109,0,0,0.59171846,20.161557,46.431791)"
       clip-path="url(#clipPath905)">
      <path
         id="path0"
         d="m 116.241,2.307 c -28.482,3.323 -44.9,24.121 -49.035,62.115 -0.483,4.437 -0.557,22.667 -0.113,27.81 0.626,7.254 2.51,21.735 2.99,22.986 0.067,0.174 -0.203,0.391 -0.713,0.572 -1.685,0.6 -7.917,3.392 -12.119,5.43 -48.074,23.318 -67.53,56.328 -52.165,88.508 1.576,3.299 2.519,4.717 2.519,3.786 0,-0.474 1.666,-3.763 2.636,-5.205 3.312,-4.92 9.822,-9.271 15.044,-10.055 1.189,-0.178 1.175,-0.088 0.364,-2.386 -6.374,-18.059 11.124,-38.637 46.583,-54.782 3.644,-1.659 3.273,-1.646 3.702,-0.13 4.412,15.583 11.37,35.136 16.596,46.635 0.858,1.889 0.945,1.331 -0.927,6.005 -4.954,12.376 -10.37,28.86 -13.276,40.405 -0.436,1.732 -0.828,3.184 -0.872,3.228 -0.137,0.137 -6.974,-2.973 -11.404,-5.187 -3.649,-1.825 -5.486,-2.827 -11.026,-6.018 -0.697,-0.401 -0.944,-0.46 -1.008,-0.241 -0.047,0.159 -0.296,1.169 -0.555,2.244 -1.559,6.481 -6.584,12.523 -12.957,15.581 l -1.843,0.885 1.038,0.698 c 6.413,4.312 25.54,13.885 32.518,16.274 0.353,0.121 0.389,0.282 0.266,1.168 -4.465,32.031 -1.884,58.616 7.46,76.856 19.921,38.889 66.07,37.802 118.261,-2.785 l 4.071,-3.166 0.6,0.493 c 5.089,4.179 17.944,12.133 26.565,16.437 37.425,18.684 69.275,13.523 85.071,-13.785 l 0.618,-1.068 -0.531,0.153 c -6.084,1.764 -15.658,-1.315 -21.178,-6.81 l -1.767,-1.759 -1.342,1.602 c -11.678,13.947 -35.677,10.558 -65.596,-9.262 l -3.964,-2.626 4.301,-4.355 c 9.337,-9.456 19.228,-20.841 27.636,-31.811 l 0.543,-0.709 4.454,-0.64 c 14.048,-2.017 30.331,-5.339 41.146,-8.395 1.431,-0.404 1.969,-0.478 2.087,-0.288 0.366,0.592 0.929,13.87 0.717,16.9 -0.143,2.049 -0.221,1.988 1.741,1.363 6.924,-2.205 14.918,-0.935 21.012,3.339 l 1.412,0.99 0.065,-7.218 c 0.075,-8.285 -0.443,-18.437 -1.157,-22.682 l -0.116,-0.688 2.777,-1.084 c 38.824,-15.15 65.006,-37.748 71.095,-61.364 2.063,-7.999 2.064,-16.632 0.004,-24.436 -6.137,-23.245 -30.537,-44.773 -68.291,-60.253 l -2.792,-1.145 0.126,-0.788 C 330.383,95.694 330.297,73.562 327.298,58.446 321.205,27.734 303.003,9.456 277.594,8.535 l -3.449,-0.125 1.196,1.716 c 4.236,6.075 5.543,13.42 3.617,20.329 -0.771,2.763 -0.824,2.488 0.515,2.645 19.161,2.252 28.954,28.957 25.031,68.258 -0.391,3.912 -0.553,5.106 -0.694,5.106 -0.058,0 -1.098,-0.288 -2.311,-0.64 -8.812,-2.558 -22.751,-5.668 -34.036,-7.594 -3.561,-0.608 -12.579,-1.978 -13.02,-1.978 -0.109,0 -1.058,-1.149 -2.109,-2.553 -9.165,-12.247 -19.53,-24.496 -28.936,-34.195 -1.696,-1.748 -3.083,-3.231 -3.083,-3.296 0,-0.152 5.021,-3.723 8.365,-5.949 2.674,-1.78 8.065,-5.061 10.483,-6.381 1.658,-0.904 1.697,-0.629 -0.386,-2.698 -4.833,-4.799 -7.049,-10.271 -7.053,-17.418 l -0.002,-3.506 -1.521,0.764 c -6.517,3.277 -16.734,9.809 -24.83,15.874 -3.01,2.255 -3.355,2.458 -3.694,2.168 -6.449,-5.514 -17.71,-13.791 -24.165,-17.761 -0.657,-0.404 -1.947,-1.199 -2.865,-1.766 C 160.635,10.887 145.321,4.913 131.776,2.812 128.862,2.36 118.634,2.028 116.241,2.307 m 10.647,24.435 c 15.359,1.769 33.85,11.068 55.078,27.696 l 1.304,1.021 -6.318,6.328 c -10.709,10.725 -22.685,24.371 -29.532,33.651 -0.419,0.567 -0.624,0.616 -5.709,1.357 -15.869,2.313 -31.312,5.584 -44.96,9.523 l -3.303,0.953 -0.118,-0.566 C 90.36,92.513 90.263,69.362 93.117,55.813 97.706,34.031 108.618,24.637 126.888,26.742 m 78.039,48.815 c 5.711,5.806 16.035,17.296 15.775,17.556 -0.039,0.039 -2.367,-0.03 -5.172,-0.155 -2.918,-0.129 -11.356,-0.187 -19.718,-0.134 -8.039,0.05 -14.59,0.019 -14.557,-0.07 0.373,-1.012 19.493,-20.619 20.107,-20.619 0.11,0 1.714,1.54 3.565,3.422 m 10.825,41.782 c 8.899,0.332 24.164,1.461 24.762,1.831 0.117,0.072 1.375,1.863 2.794,3.979 7.123,10.619 13.125,20.52 19.658,32.432 5.06,9.225 12.585,24.769 15.69,32.411 l 0.523,1.287 -0.765,1.667 c -8.574,18.672 -18.625,36.661 -30.306,54.247 -2.436,3.667 -7.577,11.111 -8.166,11.825 -0.113,0.137 -7.698,0.807 -13.543,1.196 -19.623,1.306 -41.624,1.074 -61.38,-0.648 l -3.694,-0.322 -0.7,-0.825 c -1.788,-2.104 -9.139,-12.522 -13.364,-18.939 -3.057,-4.643 -4,-6.125 -7.398,-11.624 -5.491,-8.888 -11.476,-19.737 -16.795,-30.444 l -3.143,-6.326 0.412,-0.953 c 4.734,-10.959 13.563,-27.856 21.388,-40.93 6.798,-11.36 17.979,-28.038 18.935,-28.248 0.246,-0.053 2.844,-0.293 5.771,-0.531 4.853,-0.395 7.45,-0.572 14.775,-1.009 7.259,-0.432 24.019,-0.469 34.546,-0.076 m -89.606,8.651 c -4.79,7.404 -13.149,21.959 -17.456,30.392 -1.465,2.869 -1.361,2.811 -1.946,1.087 -0.254,-0.747 -1.259,-3.698 -2.234,-6.558 -2.378,-6.975 -5.868,-18.602 -5.868,-19.548 0,-0.163 0.22,-0.344 0.489,-0.402 0.269,-0.057 2.395,-0.659 4.726,-1.337 5.153,-1.498 12.383,-3.309 18.794,-4.706 2.629,-0.573 4.803,-1.049 4.831,-1.057 0.028,-0.008 -0.574,0.949 -1.336,2.129 m 150.825,-1.154 c 8.466,1.801 22.219,5.433 22.378,5.91 0.263,0.79 -6.762,25.324 -7.674,26.801 -0.079,0.127 -0.825,-1.122 -1.657,-2.775 -5.029,-9.987 -13.165,-24.576 -16.853,-30.22 -0.411,-0.628 -0.524,-0.636 3.806,0.284 m 49.893,15.843 c 28.083,12.638 45.945,28.716 48.582,43.729 2.959,16.855 -16.045,36.641 -49.291,51.314 -5.759,2.542 -5.648,2.506 -5.775,1.917 -2.913,-13.513 -7.782,-29.474 -14.298,-46.873 l -0.448,-1.195 2.517,-6.301 c 5.468,-13.691 10.246,-28.128 13.355,-40.353 0.935,-3.674 1.076,-4.061 1.447,-3.943 0.227,0.071 1.987,0.839 3.911,1.705 M 114.31,230.561 c 4.505,7.75 9.266,15.434 12.488,20.157 0.525,0.768 0.927,1.423 0.894,1.456 -0.366,0.366 -26.237,-6.025 -26.947,-6.657 -0.356,-0.318 3.294,-13.714 6.082,-22.325 l 1.215,-3.749 1.913,3.457 c 1.052,1.902 3.012,5.349 4.355,7.661 m 178.121,-3.962 c 2.341,8.18 5.019,19.207 4.733,19.492 -0.6,0.6 -23.818,6.252 -24.183,5.887 -0.059,-0.059 0.595,-1.218 1.453,-2.577 3.454,-5.467 9.447,-15.647 12.263,-20.83 0.812,-1.493 1.64,-3.009 1.84,-3.367 0.199,-0.359 0.792,-1.468 1.317,-2.465 0.828,-1.575 0.972,-1.746 1.099,-1.304 0.08,0.28 0.745,2.604 1.478,5.164 M 99.676,270.592 c 13.149,3.673 28.069,6.737 43.353,8.903 2.843,0.403 5.199,0.77 5.236,0.814 0.036,0.045 0.97,1.206 2.075,2.581 8.04,9.998 19.021,21.875 28.802,31.152 2.031,1.926 3.715,3.552 3.741,3.611 0.16,0.364 -11.966,8.821 -16.886,11.778 -26.274,15.787 -47.164,18.464 -58.32,7.474 -10.57,-10.413 -15.043,-33.168 -12.175,-61.946 0.401,-4.022 0.565,-5.323 0.671,-5.323 0.046,0 1.622,0.43 3.503,0.956 m 119.268,12.739 c -0.791,1.13 -7.432,8.217 -12.152,12.969 l -5.227,5.263 -1.967,-1.786 c -3.79,-3.442 -14.163,-13.718 -15.951,-15.801 l -0.653,-0.76 14.044,0.061 c 11.188,0.049 21.673,-0.119 22.149,-0.354 0.036,-0.018 -0.073,0.165 -0.243,0.408"
         stroke="none"
         fill="#006699"
         fill-rule="evenodd" />
      <path
         id="path1"
         d="m 193.482,139.827 c -40.011,5.386 -56.378,55.253 -27.348,83.321 26.995,26.101 72.333,13.134 81.316,-23.257 8.236,-33.365 -19.878,-64.654 -53.968,-60.064"
         stroke="none"
         fill="#990000"
         fill-rule="evenodd" />
      <path
         id="path2"
         d="m 251.086,0.338 c -17.146,3.406 -25.07,23.127 -15.104,37.585 7.472,10.84 22.126,13.609 33.328,6.298 3.651,-2.383 8.157,-8.122 9.038,-11.514 0.094,-0.363 0.37,-1.376 0.613,-2.252 C 283.704,13.33 268.481,-3.118 251.086,0.338 M 26.29,197.941 c 0,0.089 -0.452,0.231 -1.005,0.313 -6.545,0.982 -13.735,6.631 -16.79,13.193 -1.48,3.18 -1.579,3.452 -1.996,5.471 -2.78,13.469 6.299,26.666 19.83,28.824 11.975,1.91 24.279,-6.08 27.112,-17.605 0.249,-1.016 0.549,-2.2 0.666,-2.633 0.331,-1.231 0.254,-6.222 -0.129,-8.238 -1.853,-9.77 -9.446,-17.327 -19.325,-19.231 -1.798,-0.347 -8.363,-0.421 -8.363,-0.094 m 280.174,90.296 c -19.359,3.465 -27.035,26.787 -13.313,40.454 15.598,15.535 41.45,5.131 41.45,-16.682 0,-14.985 -13.501,-26.391 -28.137,-23.772"
         stroke="none"
         fill="#339966"
         fill-rule="evenodd" />
    </g>
  </g>
</svg>
