<svg id="svg" version="1.1" xmlns="http://www.w3.org/2000/svg" xmlns:xlink="http://www.w3.org/1999/xlink" width="400" height="367.8435632808256" viewBox="0, 0, 400,367.8435632808256"><g id="svgg"><path id="path0" d="M116.241 2.307 C 87.759 5.630,71.341 26.428,67.206 64.422 C 66.723 68.859,66.649 87.089,67.093 92.232 C 67.719 99.486,69.603 113.967,70.083 115.218 C 70.150 115.392,69.880 115.609,69.370 115.790 C 67.685 116.390,61.453 119.182,57.251 121.220 C 9.177 144.538,-10.279 177.548,5.086 209.728 C 6.662 213.027,7.605 214.445,7.605 213.514 C 7.605 213.040,9.271 209.751,10.241 208.309 C 13.553 203.389,20.063 199.038,25.285 198.254 C 26.474 198.076,26.460 198.166,25.649 195.868 C 19.275 177.809,36.773 157.231,72.232 141.086 C 75.876 139.427,75.505 139.440,75.934 140.956 C 80.346 156.539,87.304 176.092,92.530 187.591 C 93.388 189.480,93.475 188.922,91.603 193.596 C 86.649 205.972,81.233 222.456,78.327 234.001 C 77.891 235.733,77.499 237.185,77.455 237.229 C 77.318 237.366,70.481 234.256,66.051 232.042 C 62.402 230.217,60.565 229.215,55.025 226.024 C 54.328 225.623,54.081 225.564,54.017 225.783 C 53.970 225.942,53.721 226.952,53.462 228.027 C 51.903 234.508,46.878 240.550,40.505 243.608 L 38.662 244.493 39.700 245.191 C 46.113 249.503,65.240 259.076,72.218 261.465 C 72.571 261.586,72.607 261.747,72.484 262.633 C 68.019 294.664,70.600 321.249,79.944 339.489 C 99.865 378.378,146.014 377.291,198.205 336.704 L 202.276 333.538 202.876 334.031 C 207.965 338.210,220.820 346.164,229.441 350.468 C 266.866 369.152,298.716 363.991,314.512 336.683 L 315.130 335.615 314.599 335.768 C 308.515 337.532,298.941 334.453,293.421 328.958 L 291.654 327.199 290.312 328.801 C 278.634 342.748,254.635 339.359,224.716 319.539 L 220.752 316.913 225.053 312.558 C 234.390 303.102,244.281 291.717,252.689 280.747 L 253.232 280.038 257.686 279.398 C 271.734 277.381,288.017 274.059,298.832 271.003 C 300.263 270.599,300.801 270.525,300.919 270.715 C 301.285 271.307,301.848 284.585,301.636 287.615 C 301.493 289.664,301.415 289.603,303.377 288.978 C 310.301 286.773,318.295 288.043,324.389 292.317 L 325.801 293.307 325.866 286.089 C 325.941 277.804,325.423 267.652,324.709 263.407 L 324.593 262.719 327.370 261.635 C 366.194 246.485,392.376 223.887,398.465 200.271 C 400.528 192.272,400.529 183.639,398.469 175.835 C 392.332 152.590,367.932 131.062,330.178 115.582 L 327.386 114.437 327.512 113.649 C 330.383 95.694,330.297 73.562,327.298 58.446 C 321.205 27.734,303.003 9.456,277.594 8.535 L 274.145 8.410 275.341 10.126 C 279.577 16.201,280.884 23.546,278.958 30.455 C 278.187 33.218,278.134 32.943,279.473 33.100 C 298.634 35.352,308.427 62.057,304.504 101.358 C 304.113 105.270,303.951 106.464,303.810 106.464 C 303.752 106.464,302.712 106.176,301.499 105.824 C 292.687 103.266,278.748 100.156,267.463 98.230 C 263.902 97.622,254.884 96.252,254.443 96.252 C 254.334 96.252,253.385 95.103,252.334 93.699 C 243.169 81.452,232.804 69.203,223.398 59.504 C 221.702 57.756,220.315 56.273,220.315 56.208 C 220.315 56.056,225.336 52.485,228.680 50.259 C 231.354 48.479,236.745 45.198,239.163 43.878 C 240.821 42.974,240.860 43.249,238.777 41.180 C 233.944 36.381,231.728 30.909,231.724 23.762 L 231.722 20.256 230.201 21.020 C 223.684 24.297,213.467 30.829,205.371 36.894 C 202.361 39.149,202.016 39.352,201.677 39.062 C 195.228 33.548,183.967 25.271,177.512 21.301 C 176.855 20.897,175.565 20.102,174.647 19.535 C 160.635 10.887,145.321 4.913,131.776 2.812 C 128.862 2.360,118.634 2.028,116.241 2.307 M126.888 26.742 C 142.247 28.511,160.738 37.810,181.966 54.438 L 183.270 55.459 176.952 61.787 C 166.243 72.512,154.267 86.158,147.420 95.438 C 147.001 96.005,146.796 96.054,141.711 96.795 C 125.842 99.108,110.399 102.379,96.751 106.318 L 93.448 107.271 93.330 106.705 C 90.360 92.513,90.263 69.362,93.117 55.813 C 97.706 34.031,108.618 24.637,126.888 26.742 M204.927 75.557 C 210.638 81.363,220.962 92.853,220.702 93.113 C 220.663 93.152,218.335 93.083,215.530 92.958 C 212.612 92.829,204.174 92.771,195.812 92.824 C 187.773 92.874,181.222 92.843,181.255 92.754 C 181.628 91.742,200.748 72.135,201.362 72.135 C 201.472 72.135,203.076 73.675,204.927 75.557 M215.752 117.339 C 224.651 117.671,239.916 118.800,240.514 119.170 C 240.631 119.242,241.889 121.033,243.308 123.149 C 250.431 133.768,256.433 143.669,262.966 155.581 C 268.026 164.806,275.551 180.350,278.656 187.992 L 279.179 189.279 278.414 190.946 C 269.840 209.618,259.789 227.607,248.108 245.193 C 245.672 248.860,240.531 256.304,239.942 257.018 C 239.829 257.155,232.244 257.825,226.399 258.214 C 206.776 259.520,184.775 259.288,165.019 257.566 L 161.325 257.244 160.625 256.419 C 158.837 254.315,151.486 243.897,147.261 237.480 C 144.204 232.837,143.261 231.355,139.863 225.856 C 134.372 216.968,128.387 206.119,123.068 195.412 L 119.925 189.086 120.337 188.133 C 125.071 177.174,133.900 160.277,141.725 147.203 C 148.523 135.843,159.704 119.165,160.660 118.955 C 160.906 118.902,163.504 118.662,166.431 118.424 C 171.284 118.029,173.881 117.852,181.206 117.415 C 188.465 116.983,205.225 116.946,215.752 117.339 M126.146 125.990 C 121.356 133.394,112.997 147.949,108.690 156.382 C 107.225 159.251,107.329 159.193,106.744 157.469 C 106.490 156.722,105.485 153.771,104.510 150.911 C 102.132 143.936,98.642 132.309,98.642 131.363 C 98.642 131.200,98.862 131.019,99.131 130.961 C 99.400 130.904,101.526 130.302,103.857 129.624 C 109.010 128.126,116.240 126.315,122.651 124.918 C 125.280 124.345,127.454 123.869,127.482 123.861 C 127.510 123.853,126.908 124.810,126.146 125.990 M276.971 124.836 C 285.437 126.637,299.190 130.269,299.349 130.746 C 299.612 131.536,292.587 156.070,291.675 157.547 C 291.596 157.674,290.850 156.425,290.018 154.772 C 284.989 144.785,276.853 130.196,273.165 124.552 C 272.754 123.924,272.641 123.916,276.971 124.836 M326.864 140.679 C 354.947 153.317,372.809 169.395,375.446 184.408 C 378.405 201.263,359.401 221.049,326.155 235.722 C 320.396 238.264,320.507 238.228,320.380 237.639 C 317.467 224.126,312.598 208.165,306.082 190.766 L 305.634 189.571 308.151 183.270 C 313.619 169.579,318.397 155.142,321.506 142.917 C 322.441 139.243,322.582 138.856,322.953 138.974 C 323.180 139.045,324.940 139.813,326.864 140.679 M114.310 230.561 C 118.815 238.311,123.576 245.995,126.798 250.718 C 127.323 251.486,127.725 252.141,127.692 252.174 C 127.326 252.540,101.455 246.149,100.745 245.517 C 100.389 245.199,104.039 231.803,106.827 223.192 L 108.042 219.443 109.955 222.900 C 111.007 224.802,112.967 228.249,114.310 230.561 M292.431 226.599 C 294.772 234.779,297.450 245.806,297.164 246.091 C 296.564 246.691,273.346 252.343,272.981 251.978 C 272.922 251.919,273.576 250.760,274.434 249.401 C 277.888 243.934,283.881 233.754,286.697 228.571 C 287.509 227.078,288.337 225.562,288.537 225.204 C 288.736 224.845,289.329 223.736,289.854 222.739 C 290.682 221.164,290.826 220.993,290.953 221.435 C 291.033 221.715,291.698 224.039,292.431 226.599 M99.676 270.592 C 112.825 274.265,127.745 277.329,143.029 279.495 C 145.872 279.898,148.228 280.265,148.265 280.309 C 148.301 280.354,149.235 281.515,150.340 282.890 C 158.380 292.888,169.361 304.765,179.142 314.042 C 181.173 315.968,182.857 317.594,182.883 317.653 C 183.043 318.017,170.917 326.474,165.997 329.431 C 139.723 345.218,118.833 347.895,107.677 336.905 C 97.107 326.492,92.634 303.737,95.502 274.959 C 95.903 270.937,96.067 269.636,96.173 269.636 C 96.219 269.636,97.795 270.066,99.676 270.592 M218.944 283.331 C 218.153 284.461,211.512 291.548,206.792 296.300 L 201.565 301.563 199.598 299.777 C 195.808 296.335,185.435 286.059,183.647 283.976 L 182.994 283.216 197.038 283.277 C 208.226 283.326,218.711 283.158,219.187 282.923 C 219.223 282.905,219.114 283.088,218.944 283.331 " stroke="none" fill="#006699" fill-rule="evenodd"></path><path id="path1" d="M193.482 139.827 C 153.471 145.213,137.104 195.080,166.134 223.148 C 193.129 249.249,238.467 236.282,247.450 199.891 C 255.686 166.526,227.572 135.237,193.482 139.827 " stroke="none" fill="#990000" fill-rule="evenodd"></path><path id="path2" d="M251.086 0.338 C 233.940 3.744,226.016 23.465,235.982 37.923 C 243.454 48.763,258.108 51.532,269.310 44.221 C 272.961 41.838,277.467 36.099,278.348 32.707 C 278.442 32.344,278.718 31.331,278.961 30.455 C 283.704 13.330,268.481 -3.118,251.086 0.338 M26.290 197.941 C 26.290 198.030,25.838 198.172,25.285 198.254 C 18.740 199.236,11.550 204.885,8.495 211.447 C 7.015 214.627,6.916 214.899,6.499 216.918 C 3.719 230.387,12.798 243.584,26.329 245.742 C 38.304 247.652,50.608 239.662,53.441 228.137 C 53.690 227.121,53.990 225.937,54.107 225.504 C 54.438 224.273,54.361 219.282,53.978 217.266 C 52.125 207.496,44.532 199.939,34.653 198.035 C 32.855 197.688,26.290 197.614,26.290 197.941 M306.464 288.237 C 287.105 291.702,279.429 315.024,293.151 328.691 C 308.749 344.226,334.601 333.822,334.601 312.009 C 334.601 297.024,321.100 285.618,306.464 288.237 " stroke="none" fill="#339966" fill-rule="evenodd"></path></g></svg>